<svg xmlns="http://www.w3.org/2000/svg" xmlns:xlink="http://www.w3.org/1999/xlink" contentStyleType="text/css" data-diagram-type="ACTIVITY" height="2276px" preserveAspectRatio="none" style="width:2374px;height:2276px;background:#FFFFFF;" version="1.1" viewBox="0 0 2374 2276" width="2374px" zoomAndPan="magnify"><?plantuml 1.2026.6?><defs/><g><g class="title" data-source-line="1"><text fill="#000000" font-family="sans-serif" font-size="14" font-weight="700" lengthAdjust="spacing" textLength="241.9033" x="1065.5288" y="34.5332">Quy tr&#236;nh &#273;&#7893;i/tr&#7843; h&#224;ng trong 15 ng&#224;y</text></g><rect fill="none" height="22.6406" style="stroke:none;stroke-width:1;" width="2327.9609" x="20" y="56.0645"/><ellipse cx="693.4409" cy="93.7051" fill="#222222" rx="10" ry="10" style="stroke:#222222;stroke-width:1;"/><rect fill="#F1F1F1" height="35.0938" rx="12.5" ry="12.5" style="stroke:#181818;stroke-width:0.5;" width="153.4355" x="616.7231" y="123.7051"/><text fill="#000000" font-family="sans-serif" font-size="12" lengthAdjust="spacing" textLength="133.4355" x="626.7231" y="146.1621">&#272;&#259;ng nh&#7853;p v&#224;o t&#224;i kho&#7843;n</text><rect fill="#F1F1F1" height="35.0938" rx="12.5" ry="12.5" style="stroke:#181818;stroke-width:0.5;" width="137.9609" x="624.4604" y="178.7988"/><text fill="#000000" font-family="sans-serif" font-size="12" lengthAdjust="spacing" textLength="117.9609" x="634.4604" y="201.2559">Xem l&#7883;ch s&#7917; &#273;&#417;n h&#224;ng</text><rect fill="#F1F1F1" height="35.0938" rx="12.5" ry="12.5" style="stroke:#181818;stroke-width:0.5;" width="162.6348" x="612.1235" y="233.8926"/><text fill="#000000" font-family="sans-serif" font-size="12" lengthAdjust="spacing" textLength="142.6348" x="622.1235" y="256.3496">Ch&#7885;n &#273;&#417;n h&#224;ng c&#7847;n &#273;&#7893;i/tr&#7843;</text><polygon fill="#F1F1F1" points="623.4797,288.9863,763.4021,288.9863,775.4021,300.9863,763.4021,312.9863,623.4797,312.9863,611.4797,300.9863,623.4797,288.9863" style="stroke:#181818;stroke-width:0.5;stroke-linejoin:miter;stroke-miterlimit:10;"/><text fill="#000000" font-family="sans-serif" font-size="11" lengthAdjust="spacing" textLength="139.9224" x="623.4797" y="305.4873">C&#242;n trong th&#7901;i h&#7841;n 15 ng&#224;y?</text><text fill="#000000" font-family="sans-serif" font-size="11" lengthAdjust="spacing" textLength="50.1445" x="561.3352" y="298.5693">Trong h&#7841;n</text><text fill="#000000" font-family="sans-serif" font-size="11" lengthAdjust="spacing" textLength="42.2007" x="775.4021" y="298.5693">Qu&#225; h&#7841;n</text><rect fill="#F1F1F1" height="35.0938" rx="12.5" ry="12.5" style="stroke:#181818;stroke-width:0.5;" width="152.7559" x="422.06" y="332.9863"/><text fill="#000000" font-family="sans-serif" font-size="12" lengthAdjust="spacing" textLength="132.7559" x="432.06" y="355.4434">T&#7841;o y&#234;u c&#7847;u &#273;&#7893;i/tr&#7843; h&#224;ng</text><polygon fill="#F1F1F1" points="451.3495,388.0801,545.5263,388.0801,557.5263,400.0801,545.5263,412.0801,451.3495,412.0801,439.3495,400.0801,451.3495,388.0801" style="stroke:#181818;stroke-width:0.5;stroke-linejoin:miter;stroke-miterlimit:10;"/><text fill="#000000" font-family="sans-serif" font-size="11" lengthAdjust="spacing" textLength="94.1768" x="451.3495" y="404.5811">Ch&#7885;n lo&#7841;i y&#234;u c&#7847;u?</text><text fill="#000000" font-family="sans-serif" font-size="11" lengthAdjust="spacing" textLength="65.9087" x="373.4409" y="397.6631">&#272;&#7893;i h&#224;ng m&#7899;i</text><text fill="#000000" font-family="sans-serif" font-size="11" lengthAdjust="spacing" textLength="100.8906" x="557.5263" y="397.6631">Tr&#7843; h&#224;ng - Ho&#224;n ti&#7873;n</text><rect fill="#F1F1F1" height="35.0938" rx="12.5" ry="12.5" style="stroke:#181818;stroke-width:0.5;" width="137.2754" x="340.4516" y="422.0801"/><text fill="#000000" font-family="sans-serif" font-size="12" lengthAdjust="spacing" textLength="117.2754" x="350.4516" y="444.5371">Y&#234;u c&#7847;u &#273;&#7893;i h&#224;ng m&#7899;i</text><rect fill="#F1F1F1" height="35.0938" rx="12.5" ry="12.5" style="stroke:#181818;stroke-width:0.5;" width="180.1191" x="497.727" y="422.0801"/><text fill="#000000" font-family="sans-serif" font-size="12" lengthAdjust="spacing" textLength="160.1191" x="507.727" y="444.5371">Y&#234;u c&#7847;u tr&#7843; h&#224;ng v&#224; ho&#224;n ti&#7873;n</text><polygon fill="#F1F1F1" points="498.4379,463.1738,510.4379,475.1738,498.4379,487.1738,486.4379,475.1738,498.4379,463.1738" style="stroke:#181818;stroke-width:0.5;stroke-linejoin:miter;stroke-miterlimit:10;"/><rect fill="#F1F1F1" height="95.4688" rx="12.5" ry="12.5" style="stroke:#181818;stroke-width:0.5;" width="107.3984" x="444.7387" y="507.1738"/><text fill="#000000" font-family="sans-serif" font-size="12" lengthAdjust="spacing" textLength="60.7031" x="454.7387" y="529.6309">Ch&#7885;n l&#253; do:</text><text fill="#000000" font-family="sans-serif" font-size="12" lengthAdjust="spacing" textLength="79.377" x="454.7387" y="544.7246">- L&#7895;i s&#7843;n ph&#7849;m</text><text fill="#000000" font-family="sans-serif" font-size="12" lengthAdjust="spacing" textLength="58.0195" x="454.7387" y="559.8184">- Sai m&#244; t&#7843;</text><text fill="#000000" font-family="sans-serif" font-size="12" lengthAdjust="spacing" textLength="87.3984" x="454.7387" y="574.9121">- Kh&#244;ng h&#224;i l&#242;ng</text><text fill="#000000" font-family="sans-serif" font-size="12" lengthAdjust="spacing" textLength="34.6816" x="454.7387" y="590.0059">- Kh&#225;c</text><rect fill="#F1F1F1" height="35.0938" rx="12.5" ry="12.5" style="stroke:#181818;stroke-width:0.5;" width="127.3906" x="434.7426" y="622.6426"/><text fill="#000000" font-family="sans-serif" font-size="12" lengthAdjust="spacing" textLength="107.3906" x="444.7426" y="645.0996">M&#244; t&#7843; chi ti&#7871;t v&#7845;n &#273;&#7873;</text><path d="M608.5063,681.4785 L608.5063,698.8301 L588.5063,702.8301 L608.5063,706.8301 L608.5063,724.1816 A0,0 0 0 0 608.5063,724.1816 L758.1796,724.1816 A0,0 0 0 0 758.1796,724.1816 L758.1796,691.4785 L748.1796,681.4785 L608.5063,681.4785 A0,0 0 0 0 608.5063,681.4785" fill="#FEFFDD" style="stroke:#181818;stroke-width:0.5;"/><path d="M748.1796,681.4785 L748.1796,691.4785 L758.1796,691.4785 L748.1796,681.4785" fill="#FEFFDD" style="stroke:#181818;stroke-width:0.5;"/><text fill="#000000" font-family="sans-serif" font-size="13" lengthAdjust="spacing" textLength="96.8462" x="614.5063" y="699.9736">B&#7855;t bu&#7897;c ph&#7843;i c&#243;</text><text fill="#000000" font-family="sans-serif" font-size="13" lengthAdjust="spacing" textLength="128.6733" x="614.5063" y="716.3252">&#7843;nh/video ch&#7913;ng minh</text><rect fill="#F1F1F1" height="50.1875" rx="12.5" ry="12.5" style="stroke:#181818;stroke-width:0.5;" width="180.1367" x="408.3696" y="677.7363"/><text fill="#000000" font-family="sans-serif" font-size="12" lengthAdjust="spacing" textLength="160.1367" x="418.3696" y="700.1934">Upload &#7843;nh/video ch&#7913;ng minh</text><text fill="#000000" font-family="sans-serif" font-size="12" lengthAdjust="spacing" textLength="106.7344" x="418.3696" y="715.2871">t&#236;nh tr&#7841;ng s&#7843;n ph&#7849;m</text><rect fill="#F1F1F1" height="35.0938" rx="12.5" ry="12.5" style="stroke:#181818;stroke-width:0.5;" width="85.3965" x="455.7397" y="747.9238"/><text fill="#000000" font-family="sans-serif" font-size="12" lengthAdjust="spacing" textLength="65.3965" x="465.7397" y="770.3809">G&#7917;i y&#234;u c&#7847;u</text><rect fill="#F1F1F1" height="35.0938" rx="12.5" ry="12.5" style="stroke:#181818;stroke-width:0.5;" width="143.3105" x="229.4965" y="1255.502"/><text fill="#000000" font-family="sans-serif" font-size="12" lengthAdjust="spacing" textLength="123.3105" x="239.4965" y="1277.959">Nh&#7853;n email h&#432;&#7899;ng d&#7851;n</text><path d="M383.1859,1306.791 L383.1859,1324.1426 L363.1859,1328.1426 L383.1859,1332.1426 L383.1859,1349.4941 A0,0 0 0 0 383.1859,1349.4941 L496.722,1349.4941 A0,0 0 0 0 496.722,1349.4941 L496.722,1316.791 L486.722,1306.791 L383.1859,1306.791 A0,0 0 0 0 383.1859,1306.791" fill="#FEFFDD" style="stroke:#181818;stroke-width:0.5;"/><path d="M486.722,1306.791 L486.722,1316.791 L496.722,1316.791 L486.722,1306.791" fill="#FEFFDD" style="stroke:#181818;stroke-width:0.5;"/><text fill="#000000" font-family="sans-serif" font-size="13" lengthAdjust="spacing" textLength="92.5361" x="389.1859" y="1325.2861">Gi&#7919; nguy&#234;n v&#7865;n</text><text fill="#000000" font-family="sans-serif" font-size="13" lengthAdjust="spacing" textLength="49.1499" x="389.1859" y="1341.6377">ph&#7909; ki&#7879;n</text><rect fill="#F1F1F1" height="35.0938" rx="12.5" ry="12.5" style="stroke:#181818;stroke-width:0.5;" width="124.0684" x="239.1176" y="1310.5957"/><text fill="#000000" font-family="sans-serif" font-size="12" lengthAdjust="spacing" textLength="104.0684" x="249.1176" y="1333.0527">&#272;&#243;ng g&#243;i s&#7843;n ph&#7849;m</text><rect fill="#F1F1F1" height="50.1875" rx="12.5" ry="12.5" style="stroke:#181818;stroke-width:0.5;" width="144.7578" x="228.7728" y="1369.4941"/><text fill="#000000" font-family="sans-serif" font-size="12" lengthAdjust="spacing" textLength="124.7578" x="238.7728" y="1391.9512">G&#7917;i h&#224;ng v&#7873; showroom</text><text fill="#000000" font-family="sans-serif" font-size="12" lengthAdjust="spacing" textLength="73.3594" x="238.7728" y="1407.0449">theo m&#227; RMA</text><rect fill="#F1F1F1" height="35.0938" rx="12.5" ry="12.5" style="stroke:#181818;stroke-width:0.5;" width="128.5859" x="26" y="1943.3379"/><text fill="#000000" font-family="sans-serif" font-size="12" lengthAdjust="spacing" textLength="108.5859" x="36" y="1965.7949">Nh&#7853;n s&#7843;n ph&#7849;m m&#7899;i</text><rect fill="#F1F1F1" height="35.0938" rx="12.5" ry="12.5" style="stroke:#181818;stroke-width:0.5;" width="158.1172" x="164.5859" y="2059.6191"/><text fill="#000000" font-family="sans-serif" font-size="12" lengthAdjust="spacing" textLength="138.1172" x="174.5859" y="2082.0762">Nh&#7853;n th&#244;ng b&#225;o ho&#224;n ti&#7873;n</text><rect fill="#F1F1F1" height="50.1875" rx="12.5" ry="12.5" style="stroke:#181818;stroke-width:0.5;" width="120.7461" x="467.2642" y="1759.1504"/><text fill="#000000" font-family="sans-serif" font-size="12" lengthAdjust="spacing" textLength="100.7461" x="477.2642" y="1781.6074">Nh&#7853;n email t&#7915; ch&#7889;i</text><text fill="#000000" font-family="sans-serif" font-size="12" lengthAdjust="spacing" textLength="41.3555" x="477.2642" y="1796.7012">v&#224; l&#253; do</text><ellipse cx="527.6372" cy="1855.3379" fill="none" rx="11" ry="11" style="stroke:#222222;stroke-width:1;"/><ellipse cx="527.6372" cy="1855.3379" fill="#222222" rx="6" ry="6" style="stroke:#222222;stroke-width:1;"/><rect fill="#F1F1F1" height="35.0938" rx="12.5" ry="12.5" style="stroke:#181818;stroke-width:0.5;" width="106.0742" x="642.687" y="1067.3926"/><text fill="#000000" font-family="sans-serif" font-size="12" lengthAdjust="spacing" textLength="86.0742" x="652.687" y="1089.8496">T&#7915; ch&#7889;i y&#234;u c&#7847;u</text><rect fill="#F1F1F1" height="35.0938" rx="12.5" ry="12.5" style="stroke:#181818;stroke-width:0.5;" width="152.0879" x="619.6802" y="1122.4863"/><text fill="#000000" font-family="sans-serif" font-size="12" lengthAdjust="spacing" textLength="132.0879" x="629.6802" y="1144.9434">G&#7917;i email gi&#7843;i th&#237;ch l&#253; do</text><rect fill="#F1F1F1" height="35.0938" rx="12.5" ry="12.5" style="stroke:#181818;stroke-width:0.5;" width="120.7461" x="635.3511" y="1185.1895"/><text fill="#000000" font-family="sans-serif" font-size="12" lengthAdjust="spacing" textLength="100.7461" x="645.3511" y="1207.6465">Nh&#7853;n email t&#7915; ch&#7889;i</text><ellipse cx="695.7241" cy="1258.8926" fill="none" rx="11" ry="11" style="stroke:#222222;stroke-width:1;"/><ellipse cx="695.7241" cy="1258.8926" fill="#222222" rx="6" ry="6" style="stroke:#222222;stroke-width:1;"/><rect fill="#F1F1F1" height="35.0938" rx="12.5" ry="12.5" style="stroke:#181818;stroke-width:0.5;" width="173.3516" x="801.7681" y="332.9863"/><text fill="#000000" font-family="sans-serif" font-size="12" lengthAdjust="spacing" textLength="153.3516" x="811.7681" y="355.4434">H&#432;&#7899;ng d&#7851;n li&#234;n h&#7879; b&#7843;o h&#224;nh</text><ellipse cx="888.4438" cy="399.0801" fill="none" rx="11" ry="11" style="stroke:#222222;stroke-width:1;"/><ellipse cx="888.4438" cy="399.0801" fill="#222222" rx="6" ry="6" style="stroke:#222222;stroke-width:1;"/><line style="stroke:#000000;stroke-width:1.5;" x1="20" x2="20" y1="56.0645" y2="2255.8066"/><rect fill="#F1F1F1" height="35.0938" rx="12.5" ry="12.5" style="stroke:#181818;stroke-width:0.5;" width="187.4551" x="1581.1245" y="803.0176"/><text fill="#000000" font-family="sans-serif" font-size="12" lengthAdjust="spacing" textLength="167.4551" x="1591.1245" y="825.4746">Nh&#7853;n th&#244;ng b&#225;o y&#234;u c&#7847;u &#273;&#7893;i/tr&#7843;</text><rect fill="#F1F1F1" height="35.0938" rx="12.5" ry="12.5" style="stroke:#181818;stroke-width:0.5;" width="128.0527" x="1610.8256" y="858.1113"/><text fill="#000000" font-family="sans-serif" font-size="12" lengthAdjust="spacing" textLength="108.0527" x="1620.8256" y="880.5684">Xem chi ti&#7871;t y&#234;u c&#7847;u</text><rect fill="#F1F1F1" height="35.0938" rx="12.5" ry="12.5" style="stroke:#181818;stroke-width:0.5;" width="186.7871" x="1581.4584" y="913.2051"/><text fill="#000000" font-family="sans-serif" font-size="12" lengthAdjust="spacing" textLength="166.7871" x="1591.4584" y="935.6621">Ki&#7875;m tra &#7843;nh/video ch&#7913;ng minh</text><rect fill="#F1F1F1" height="35.0938" rx="12.5" ry="12.5" style="stroke:#181818;stroke-width:0.5;" width="157.9473" x="1595.8784" y="968.2988"/><text fill="#000000" font-family="sans-serif" font-size="12" lengthAdjust="spacing" textLength="137.9473" x="1605.8784" y="990.7559">Ki&#7875;m tra th&#7901;i h&#7841;n 15 ng&#224;y</text><polygon fill="#F1F1F1" points="1634.55,1023.3926,1715.154,1023.3926,1727.154,1035.3926,1715.154,1047.3926,1634.55,1047.3926,1622.55,1035.3926,1634.55,1023.3926" style="stroke:#181818;stroke-width:0.5;stroke-linejoin:miter;stroke-miterlimit:10;"/><text fill="#000000" font-family="sans-serif" font-size="11" lengthAdjust="spacing" textLength="80.604" x="1634.55" y="1039.8936">Y&#234;u c&#7847;u h&#7907;p l&#7879;?</text><text fill="#000000" font-family="sans-serif" font-size="11" lengthAdjust="spacing" textLength="32.8926" x="1589.6574" y="1032.9756">H&#7907;p l&#7879;</text><text fill="#000000" font-family="sans-serif" font-size="11" lengthAdjust="spacing" textLength="65.9302" x="1727.154" y="1032.9756">Kh&#244;ng h&#7907;p l&#7879;</text><rect fill="#F1F1F1" height="35.0938" rx="12.5" ry="12.5" style="stroke:#181818;stroke-width:0.5;" width="119.4043" x="1417.8636" y="1067.3926"/><text fill="#000000" font-family="sans-serif" font-size="12" lengthAdjust="spacing" textLength="99.4043" x="1427.8636" y="1089.8496">Ph&#234; duy&#7879;t y&#234;u c&#7847;u</text><path d="M1542.9066,1122.4863 L1542.9066,1139.8379 L1522.9066,1143.8379 L1542.9066,1147.8379 L1542.9066,1165.1895 A0,0 0 0 0 1542.9066,1165.1895 L1680.9637,1165.1895 A0,0 0 0 0 1680.9637,1165.1895 L1680.9637,1132.4863 L1670.9637,1122.4863 L1542.9066,1122.4863 A0,0 0 0 0 1542.9066,1122.4863" fill="#FEFFDD" style="stroke:#181818;stroke-width:0.5;"/><path d="M1670.9637,1122.4863 L1670.9637,1132.4863 L1680.9637,1132.4863 L1670.9637,1122.4863" fill="#FEFFDD" style="stroke:#181818;stroke-width:0.5;"/><text fill="#000000" font-family="sans-serif" font-size="13" lengthAdjust="spacing" textLength="117.0571" x="1548.9066" y="1140.9814">Return Merchandise</text><text fill="#000000" font-family="sans-serif" font-size="13" lengthAdjust="spacing" textLength="75.8799" x="1548.9066" y="1157.333">Authorization</text><rect fill="#F1F1F1" height="35.0938" rx="12.5" ry="12.5" style="stroke:#181818;stroke-width:0.5;" width="90.6816" x="1432.225" y="1126.291"/><text fill="#000000" font-family="sans-serif" font-size="12" lengthAdjust="spacing" textLength="70.6816" x="1442.225" y="1148.748">T&#7841;o m&#227; RMA</text><rect fill="#F1F1F1" height="35.0938" rx="12.5" ry="12.5" style="stroke:#181818;stroke-width:0.5;" width="185.3926" x="1384.8695" y="1192.7988"/><text fill="#000000" font-family="sans-serif" font-size="12" lengthAdjust="spacing" textLength="165.3926" x="1394.8695" y="1215.2559">G&#7917;i email h&#432;&#7899;ng d&#7851;n g&#7917;i h&#224;ng</text><rect fill="#F1F1F1" height="35.0938" rx="12.5" ry="12.5" style="stroke:#181818;stroke-width:0.5;" width="186.7578" x="1384.1869" y="1439.6816"/><text fill="#000000" font-family="sans-serif" font-size="12" lengthAdjust="spacing" textLength="166.7578" x="1394.1869" y="1462.1387">Nh&#7853;n h&#224;ng tr&#7843; v&#7873; t&#7841;i showroom</text><rect fill="#F1F1F1" height="35.0938" rx="12.5" ry="12.5" style="stroke:#181818;stroke-width:0.5;" width="114.6816" x="1420.225" y="1494.7754"/><text fill="#000000" font-family="sans-serif" font-size="12" lengthAdjust="spacing" textLength="94.6816" x="1430.225" y="1517.2324">Ki&#7875;m tra m&#227; RMA</text><rect fill="#F1F1F1" height="35.0938" rx="12.5" ry="12.5" style="stroke:#181818;stroke-width:0.5;" width="174.7461" x="1390.1927" y="1549.8691"/><text fill="#000000" font-family="sans-serif" font-size="12" lengthAdjust="spacing" textLength="154.7461" x="1400.1927" y="1572.3262">Ki&#7875;m tra t&#236;nh tr&#7841;ng s&#7843;n ph&#7849;m</text><polygon fill="#F1F1F1" points="1409.0709,1604.9629,1546.0607,1604.9629,1558.0607,1616.9629,1546.0607,1628.9629,1409.0709,1628.9629,1397.0709,1616.9629,1409.0709,1604.9629" style="stroke:#181818;stroke-width:0.5;stroke-linejoin:miter;stroke-miterlimit:10;"/><text fill="#000000" font-family="sans-serif" font-size="11" lengthAdjust="spacing" textLength="136.9897" x="1409.0709" y="1621.4639">S&#7843;n ph&#7849;m c&#242;n nguy&#234;n v&#7865;n?</text><text fill="#000000" font-family="sans-serif" font-size="11" lengthAdjust="spacing" textLength="14.0615" x="1383.0094" y="1614.5459">C&#243;</text><text fill="#000000" font-family="sans-serif" font-size="11" lengthAdjust="spacing" textLength="31.8076" x="1558.0607" y="1614.5459">Kh&#244;ng</text><rect fill="#F1F1F1" height="35.0938" rx="12.5" ry="12.5" style="stroke:#181818;stroke-width:0.5;" width="142.0918" x="1180.0344" y="1648.9629"/><text fill="#000000" font-family="sans-serif" font-size="12" lengthAdjust="spacing" textLength="122.0918" x="1190.0344" y="1671.4199">Ch&#7845;p nh&#7853;n h&#224;ng tr&#7843; v&#7873;</text><polygon fill="#F1F1F1" points="1216.8315,1759.1504,1285.3291,1759.1504,1297.3291,1771.1504,1285.3291,1783.1504,1216.8315,1783.1504,1204.8315,1771.1504,1216.8315,1759.1504" style="stroke:#181818;stroke-width:0.5;stroke-linejoin:miter;stroke-miterlimit:10;"/><text fill="#000000" font-family="sans-serif" font-size="11" lengthAdjust="spacing" textLength="68.4976" x="1216.8315" y="1775.6514">Lo&#7841;i y&#234;u c&#7847;u?</text><text fill="#000000" font-family="sans-serif" font-size="11" lengthAdjust="spacing" textLength="44.0322" x="1160.7993" y="1768.7334">&#272;&#7893;i h&#224;ng</text><text fill="#000000" font-family="sans-serif" font-size="11" lengthAdjust="spacing" textLength="100.8906" x="1297.3291" y="1768.7334">Tr&#7843; h&#224;ng - Ho&#224;n ti&#7873;n</text><rect fill="#F1F1F1" height="35.0938" rx="12.5" ry="12.5" style="stroke:#181818;stroke-width:0.5;" width="193.9648" x="985.1196" y="1803.1504"/><text fill="#000000" font-family="sans-serif" font-size="12" lengthAdjust="spacing" textLength="173.9648" x="995.1196" y="1825.6074">Chu&#7849;n b&#7883; s&#7843;n ph&#7849;m m&#7899;i thay th&#7871;</text><rect fill="#F1F1F1" height="35.0938" rx="12.5" ry="12.5" style="stroke:#181818;stroke-width:0.5;" width="157.2793" x="1003.4624" y="1873.2441"/><text fill="#000000" font-family="sans-serif" font-size="12" lengthAdjust="spacing" textLength="137.2793" x="1013.4624" y="1895.7012">Giao h&#224;ng m&#7899;i cho kh&#225;ch</text><rect fill="#F1F1F1" height="35.0938" rx="12.5" ry="12.5" style="stroke:#181818;stroke-width:0.5;" width="168.7754" x="997.7144" y="2004.5254"/><text fill="#000000" font-family="sans-serif" font-size="12" lengthAdjust="spacing" textLength="148.7754" x="1007.7144" y="2026.9824">C&#7853;p nh&#7853;t tr&#7841;ng th&#225;i ho&#224;n t&#7845;t</text><ellipse cx="1082.1021" cy="2076.7129" fill="none" rx="11" ry="11" style="stroke:#222222;stroke-width:1;"/><ellipse cx="1082.1021" cy="2076.7129" fill="#222222" rx="6" ry="6" style="stroke:#222222;stroke-width:1;"/><line style="stroke:#000000;stroke-width:1.5;" x1="979.1196" x2="979.1196" y1="56.0645" y2="2255.8066"/><rect fill="#F1F1F1" height="35.0938" rx="12.5" ry="12.5" style="stroke:#181818;stroke-width:0.5;" width="106.7246" x="1804.0842" y="1704.0566"/><text fill="#000000" font-family="sans-serif" font-size="12" lengthAdjust="spacing" textLength="86.7246" x="1814.0842" y="1726.5137">C&#7897;ng l&#7841;i t&#7891;n kho</text><rect fill="#F1F1F1" height="35.0938" rx="12.5" ry="12.5" style="stroke:#181818;stroke-width:0.5;" width="135.4121" x="1958.7187" y="1803.1504"/><text fill="#000000" font-family="sans-serif" font-size="12" lengthAdjust="spacing" textLength="115.4121" x="1968.7187" y="1825.6074">T&#237;nh s&#7889; ti&#7873;n c&#7847;n ho&#224;n</text><polygon fill="#F1F1F1" points="1952.7656,1873.2441,2100.0839,1873.2441,2112.0839,1885.2441,2100.0839,1897.2441,1952.7656,1897.2441,1940.7656,1885.2441,1952.7656,1873.2441" style="stroke:#181818;stroke-width:0.5;stroke-linejoin:miter;stroke-miterlimit:10;"/><text fill="#000000" font-family="sans-serif" font-size="11" lengthAdjust="spacing" textLength="147.3184" x="1952.7656" y="1889.7451">Ph&#432;&#417;ng th&#7913;c thanh to&#225;n g&#7889;c?</text><text fill="#000000" font-family="sans-serif" font-size="11" lengthAdjust="spacing" textLength="24.4438" x="1916.3217" y="1882.8271">COD</text><text fill="#000000" font-family="sans-serif" font-size="11" lengthAdjust="spacing" textLength="34.2354" x="2112.0839" y="1882.8271">VNPay</text><rect fill="#F1F1F1" height="35.0938" rx="12.5" ry="12.5" style="stroke:#181818;stroke-width:0.5;" width="215.4863" x="1815.4506" y="1907.2441"/><text fill="#000000" font-family="sans-serif" font-size="12" lengthAdjust="spacing" textLength="195.4863" x="1825.4506" y="1929.7012">Chuy&#7875;n kho&#7843;n ng&#226;n h&#224;ng cho kh&#225;ch</text><rect fill="#F1F1F1" height="35.0938" rx="12.5" ry="12.5" style="stroke:#181818;stroke-width:0.5;" width="157.4375" x="2050.937" y="1907.2441"/><text fill="#000000" font-family="sans-serif" font-size="12" lengthAdjust="spacing" textLength="137.4375" x="2060.937" y="1929.7012">X&#7917; l&#253; ho&#224;n ti&#7873;n v&#7873; VNPay</text><polygon fill="#F1F1F1" points="2026.4247,1948.3379,2038.4247,1960.3379,2026.4247,1972.3379,2014.4247,1960.3379,2026.4247,1948.3379" style="stroke:#181818;stroke-width:0.5;stroke-linejoin:miter;stroke-miterlimit:10;"/><rect fill="#F1F1F1" height="35.0938" rx="12.5" ry="12.5" style="stroke:#181818;stroke-width:0.5;" width="140.0996" x="1956.3749" y="1998.4316"/><text fill="#000000" font-family="sans-serif" font-size="12" lengthAdjust="spacing" textLength="120.0996" x="1966.3749" y="2020.8887">X&#225;c nh&#7853;n &#273;&#227; ho&#224;n ti&#7873;n</text><rect fill="#F1F1F1" height="35.0938" rx="12.5" ry="12.5" style="stroke:#181818;stroke-width:0.5;" width="168.7754" x="1942.037" y="2114.7129"/><text fill="#000000" font-family="sans-serif" font-size="12" lengthAdjust="spacing" textLength="148.7754" x="1952.037" y="2137.1699">C&#7853;p nh&#7853;t tr&#7841;ng th&#225;i ho&#224;n t&#7845;t</text><ellipse cx="2026.4247" cy="2180.8066" fill="none" rx="11" ry="11" style="stroke:#222222;stroke-width:1;"/><ellipse cx="2026.4247" cy="2180.8066" fill="#222222" rx="6" ry="6" style="stroke:#222222;stroke-width:1;"/><rect fill="#F1F1F1" height="35.0938" rx="12.5" ry="12.5" style="stroke:#181818;stroke-width:0.5;" width="124.0859" x="2218.3745" y="1648.9629"/><text fill="#000000" font-family="sans-serif" font-size="12" lengthAdjust="spacing" textLength="104.0859" x="2228.3745" y="1671.4199">T&#7915; ch&#7889;i h&#224;ng tr&#7843; v&#7873;</text><rect fill="#F1F1F1" height="35.0938" rx="12.5" ry="12.5" style="stroke:#181818;stroke-width:0.5;" width="113.4102" x="2223.7123" y="1704.0566"/><text fill="#000000" font-family="sans-serif" font-size="12" lengthAdjust="spacing" textLength="93.4102" x="2233.7123" y="1726.5137">G&#7917;i l&#7841;i cho kh&#225;ch</text><line style="stroke:#000000;stroke-width:1.5;" x1="1798.0842" x2="1798.0842" y1="56.0645" y2="2255.8066"/><line style="stroke:#000000;stroke-width:1.5;" x1="2346.4604" x2="2346.4604" y1="56.0645" y2="2255.8066"/><line style="stroke:#181818;stroke-width:1;" x1="693.4409" x2="693.4409" y1="103.7051" y2="123.7051"/><polygon fill="#181818" points="689.4409,113.7051,693.4409,123.7051,697.4409,113.7051,693.4409,117.7051" style="stroke:#181818;stroke-width:1;stroke-linejoin:miter;stroke-miterlimit:10;"/><line style="stroke:#181818;stroke-width:1;" x1="693.4409" x2="693.4409" y1="158.7988" y2="178.7988"/><polygon fill="#181818" points="689.4409,168.7988,693.4409,178.7988,697.4409,168.7988,693.4409,172.7988" style="stroke:#181818;stroke-width:1;stroke-linejoin:miter;stroke-miterlimit:10;"/><line style="stroke:#181818;stroke-width:1;" x1="693.4409" x2="693.4409" y1="213.8926" y2="233.8926"/><polygon fill="#181818" points="689.4409,223.8926,693.4409,233.8926,697.4409,223.8926,693.4409,227.8926" style="stroke:#181818;stroke-width:1;stroke-linejoin:miter;stroke-miterlimit:10;"/><line style="stroke:#181818;stroke-width:1;" x1="439.3495" x2="409.0893" y1="400.0801" y2="400.0801"/><line style="stroke:#181818;stroke-width:1;" x1="409.0893" x2="409.0893" y1="400.0801" y2="422.0801"/><polygon fill="#181818" points="405.0893,412.0801,409.0893,422.0801,413.0893,412.0801,409.0893,416.0801" style="stroke:#181818;stroke-width:1;stroke-linejoin:miter;stroke-miterlimit:10;"/><line style="stroke:#181818;stroke-width:1;" x1="557.5263" x2="587.7866" y1="400.0801" y2="400.0801"/><line style="stroke:#181818;stroke-width:1;" x1="587.7866" x2="587.7866" y1="400.0801" y2="422.0801"/><polygon fill="#181818" points="583.7866,412.0801,587.7866,422.0801,591.7866,412.0801,587.7866,416.0801" style="stroke:#181818;stroke-width:1;stroke-linejoin:miter;stroke-miterlimit:10;"/><line style="stroke:#181818;stroke-width:1;" x1="409.0893" x2="409.0893" y1="457.1738" y2="475.1738"/><line style="stroke:#181818;stroke-width:1;" x1="409.0893" x2="486.4379" y1="475.1738" y2="475.1738"/><polygon fill="#181818" points="476.4379,471.1738,486.4379,475.1738,476.4379,479.1738,480.4379,475.1738" style="stroke:#181818;stroke-width:1;stroke-linejoin:miter;stroke-miterlimit:10;"/><line style="stroke:#181818;stroke-width:1;" x1="587.7866" x2="587.7866" y1="457.1738" y2="475.1738"/><line style="stroke:#181818;stroke-width:1;" x1="587.7866" x2="510.4379" y1="475.1738" y2="475.1738"/><polygon fill="#181818" points="520.4379,471.1738,510.4379,475.1738,520.4379,479.1738,516.4379,475.1738" style="stroke:#181818;stroke-width:1;stroke-linejoin:miter;stroke-miterlimit:10;"/><line style="stroke:#181818;stroke-width:1;" x1="498.4379" x2="498.4379" y1="368.0801" y2="388.0801"/><polygon fill="#181818" points="494.4379,378.0801,498.4379,388.0801,502.4379,378.0801,498.4379,382.0801" style="stroke:#181818;stroke-width:1;stroke-linejoin:miter;stroke-miterlimit:10;"/><line style="stroke:#181818;stroke-width:1;" x1="498.4379" x2="498.4379" y1="487.1738" y2="507.1738"/><polygon fill="#181818" points="494.4379,497.1738,498.4379,507.1738,502.4379,497.1738,498.4379,501.1738" style="stroke:#181818;stroke-width:1;stroke-linejoin:miter;stroke-miterlimit:10;"/><line style="stroke:#181818;stroke-width:1;" x1="498.4379" x2="498.4379" y1="602.6426" y2="622.6426"/><polygon fill="#181818" points="494.4379,612.6426,498.4379,622.6426,502.4379,612.6426,498.4379,616.6426" style="stroke:#181818;stroke-width:1;stroke-linejoin:miter;stroke-miterlimit:10;"/><line style="stroke:#181818;stroke-width:1;" x1="498.4379" x2="498.4379" y1="657.7363" y2="677.7363"/><polygon fill="#181818" points="494.4379,667.7363,498.4379,677.7363,502.4379,667.7363,498.4379,671.7363" style="stroke:#181818;stroke-width:1;stroke-linejoin:miter;stroke-miterlimit:10;"/><line style="stroke:#181818;stroke-width:1;" x1="498.4379" x2="498.4379" y1="727.9238" y2="747.9238"/><polygon fill="#181818" points="494.4379,737.9238,498.4379,747.9238,502.4379,737.9238,498.4379,741.9238" style="stroke:#181818;stroke-width:1;stroke-linejoin:miter;stroke-miterlimit:10;"/><line style="stroke:#181818;stroke-width:1;" x1="301.1517" x2="301.1517" y1="1290.5957" y2="1310.5957"/><polygon fill="#181818" points="297.1517,1300.5957,301.1517,1310.5957,305.1517,1300.5957,301.1517,1304.5957" style="stroke:#181818;stroke-width:1;stroke-linejoin:miter;stroke-miterlimit:10;"/><line style="stroke:#181818;stroke-width:1;" x1="301.1517" x2="301.1517" y1="1345.6895" y2="1369.4941"/><polygon fill="#181818" points="297.1517,1359.4941,301.1517,1369.4941,305.1517,1359.4941,301.1517,1363.4941" style="stroke:#181818;stroke-width:1;stroke-linejoin:miter;stroke-miterlimit:10;"/><line style="stroke:#181818;stroke-width:1;" x1="527.6372" x2="527.6372" y1="1809.3379" y2="1844.3379"/><polygon fill="#181818" points="523.6372,1834.3379,527.6372,1844.3379,531.6372,1834.3379,527.6372,1838.3379" style="stroke:#181818;stroke-width:1;stroke-linejoin:miter;stroke-miterlimit:10;"/><line style="stroke:#181818;stroke-width:1;" x1="695.7241" x2="695.7241" y1="1102.4863" y2="1122.4863"/><polygon fill="#181818" points="691.7241,1112.4863,695.7241,1122.4863,699.7241,1112.4863,695.7241,1116.4863" style="stroke:#181818;stroke-width:1;stroke-linejoin:miter;stroke-miterlimit:10;"/><line style="stroke:#181818;stroke-width:1;" x1="695.7241" x2="695.7241" y1="1157.5801" y2="1185.1895"/><polygon fill="#181818" points="691.7241,1175.1895,695.7241,1185.1895,699.7241,1175.1895,695.7241,1179.1895" style="stroke:#181818;stroke-width:1;stroke-linejoin:miter;stroke-miterlimit:10;"/><line style="stroke:#181818;stroke-width:1;" x1="695.7241" x2="695.7241" y1="1220.2832" y2="1247.8926"/><polygon fill="#181818" points="691.7241,1237.8926,695.7241,1247.8926,699.7241,1237.8926,695.7241,1241.8926" style="stroke:#181818;stroke-width:1;stroke-linejoin:miter;stroke-miterlimit:10;"/><line style="stroke:#181818;stroke-width:1;" x1="888.4438" x2="888.4438" y1="368.0801" y2="388.0801"/><polygon fill="#181818" points="884.4438,378.0801,888.4438,388.0801,892.4438,378.0801,888.4438,382.0801" style="stroke:#181818;stroke-width:1;stroke-linejoin:miter;stroke-miterlimit:10;"/><line style="stroke:#181818;stroke-width:1;" x1="611.4797" x2="498.4379" y1="300.9863" y2="300.9863"/><line style="stroke:#181818;stroke-width:1;" x1="498.4379" x2="498.4379" y1="300.9863" y2="332.9863"/><polygon fill="#181818" points="494.4379,322.9863,498.4379,332.9863,502.4379,322.9863,498.4379,326.9863" style="stroke:#181818;stroke-width:1;stroke-linejoin:miter;stroke-miterlimit:10;"/><line style="stroke:#181818;stroke-width:1;" x1="775.4021" x2="888.4438" y1="300.9863" y2="300.9863"/><line style="stroke:#181818;stroke-width:1;" x1="888.4438" x2="888.4438" y1="300.9863" y2="332.9863"/><polygon fill="#181818" points="884.4438,322.9863,888.4438,332.9863,892.4438,322.9863,888.4438,326.9863" style="stroke:#181818;stroke-width:1;stroke-linejoin:miter;stroke-miterlimit:10;"/><line style="stroke:#181818;stroke-width:1;" x1="693.4409" x2="693.4409" y1="268.9863" y2="288.9863"/><polygon fill="#181818" points="689.4409,278.9863,693.4409,288.9863,697.4409,278.9863,693.4409,282.9863" style="stroke:#181818;stroke-width:1;stroke-linejoin:miter;stroke-miterlimit:10;"/><line style="stroke:#181818;stroke-width:1;" x1="1674.852" x2="1674.852" y1="838.1113" y2="858.1113"/><polygon fill="#181818" points="1670.852,848.1113,1674.852,858.1113,1678.852,848.1113,1674.852,852.1113" style="stroke:#181818;stroke-width:1;stroke-linejoin:miter;stroke-miterlimit:10;"/><line style="stroke:#181818;stroke-width:1;" x1="1674.852" x2="1674.852" y1="893.2051" y2="913.2051"/><polygon fill="#181818" points="1670.852,903.2051,1674.852,913.2051,1678.852,903.2051,1674.852,907.2051" style="stroke:#181818;stroke-width:1;stroke-linejoin:miter;stroke-miterlimit:10;"/><line style="stroke:#181818;stroke-width:1;" x1="1674.852" x2="1674.852" y1="948.2988" y2="968.2988"/><polygon fill="#181818" points="1670.852,958.2988,1674.852,968.2988,1678.852,958.2988,1674.852,962.2988" style="stroke:#181818;stroke-width:1;stroke-linejoin:miter;stroke-miterlimit:10;"/><line style="stroke:#181818;stroke-width:1;" x1="1477.5658" x2="1477.5658" y1="1102.4863" y2="1126.291"/><polygon fill="#181818" points="1473.5658,1116.291,1477.5658,1126.291,1481.5658,1116.291,1477.5658,1120.291" style="stroke:#181818;stroke-width:1;stroke-linejoin:miter;stroke-miterlimit:10;"/><line style="stroke:#181818;stroke-width:1;" x1="1477.5658" x2="1477.5658" y1="1161.3848" y2="1192.7988"/><polygon fill="#181818" points="1473.5658,1182.7988,1477.5658,1192.7988,1481.5658,1182.7988,1477.5658,1186.7988" style="stroke:#181818;stroke-width:1;stroke-linejoin:miter;stroke-miterlimit:10;"/><line style="stroke:#181818;stroke-width:1;" x1="1477.5658" x2="1477.5658" y1="1474.7754" y2="1494.7754"/><polygon fill="#181818" points="1473.5658,1484.7754,1477.5658,1494.7754,1481.5658,1484.7754,1477.5658,1488.7754" style="stroke:#181818;stroke-width:1;stroke-linejoin:miter;stroke-miterlimit:10;"/><line style="stroke:#181818;stroke-width:1;" x1="1477.5658" x2="1477.5658" y1="1529.8691" y2="1549.8691"/><polygon fill="#181818" points="1473.5658,1539.8691,1477.5658,1549.8691,1481.5658,1539.8691,1477.5658,1543.8691" style="stroke:#181818;stroke-width:1;stroke-linejoin:miter;stroke-miterlimit:10;"/><line style="stroke:#181818;stroke-width:1;" x1="1082.1021" x2="1082.1021" y1="1838.2441" y2="1873.2441"/><polygon fill="#181818" points="1078.1021,1863.2441,1082.1021,1873.2441,1086.1021,1863.2441,1082.1021,1867.2441" style="stroke:#181818;stroke-width:1;stroke-linejoin:miter;stroke-miterlimit:10;"/><line style="stroke:#181818;stroke-width:1;" x1="1082.1021" x2="1082.1021" y1="2039.6191" y2="2065.7129"/><polygon fill="#181818" points="1078.1021,2055.7129,1082.1021,2065.7129,1086.1021,2055.7129,1082.1021,2059.7129" style="stroke:#181818;stroke-width:1;stroke-linejoin:miter;stroke-miterlimit:10;"/><line style="stroke:#181818;stroke-width:1;" x1="1204.8315" x2="1082.1021" y1="1771.1504" y2="1771.1504"/><line style="stroke:#181818;stroke-width:1;" x1="1082.1021" x2="1082.1021" y1="1771.1504" y2="1803.1504"/><polygon fill="#181818" points="1078.1021,1793.1504,1082.1021,1803.1504,1086.1021,1793.1504,1082.1021,1797.1504" style="stroke:#181818;stroke-width:1;stroke-linejoin:miter;stroke-miterlimit:10;"/><line style="stroke:#181818;stroke-width:1;" x1="1397.0709" x2="1251.0803" y1="1616.9629" y2="1616.9629"/><line style="stroke:#181818;stroke-width:1;" x1="1251.0803" x2="1251.0803" y1="1616.9629" y2="1648.9629"/><polygon fill="#181818" points="1247.0803,1638.9629,1251.0803,1648.9629,1255.0803,1638.9629,1251.0803,1642.9629" style="stroke:#181818;stroke-width:1;stroke-linejoin:miter;stroke-miterlimit:10;"/><line style="stroke:#181818;stroke-width:1;" x1="1477.5658" x2="1477.5658" y1="1584.9629" y2="1604.9629"/><polygon fill="#181818" points="1473.5658,1594.9629,1477.5658,1604.9629,1481.5658,1594.9629,1477.5658,1598.9629" style="stroke:#181818;stroke-width:1;stroke-linejoin:miter;stroke-miterlimit:10;"/><line style="stroke:#181818;stroke-width:1;" x1="1622.55" x2="1477.5658" y1="1035.3926" y2="1035.3926"/><line style="stroke:#181818;stroke-width:1;" x1="1477.5658" x2="1477.5658" y1="1035.3926" y2="1067.3926"/><polygon fill="#181818" points="1473.5658,1057.3926,1477.5658,1067.3926,1481.5658,1057.3926,1477.5658,1061.3926" style="stroke:#181818;stroke-width:1;stroke-linejoin:miter;stroke-miterlimit:10;"/><line style="stroke:#181818;stroke-width:1;" x1="1674.852" x2="1674.852" y1="1003.3926" y2="1023.3926"/><polygon fill="#181818" points="1670.852,1013.3926,1674.852,1023.3926,1678.852,1013.3926,1674.852,1017.3926" style="stroke:#181818;stroke-width:1;stroke-linejoin:miter;stroke-miterlimit:10;"/><line style="stroke:#181818;stroke-width:1;" x1="1940.7656" x2="1923.1938" y1="1885.2441" y2="1885.2441"/><line style="stroke:#181818;stroke-width:1;" x1="1923.1938" x2="1923.1938" y1="1885.2441" y2="1907.2441"/><polygon fill="#181818" points="1919.1938,1897.2441,1923.1938,1907.2441,1927.1938,1897.2441,1923.1938,1901.2441" style="stroke:#181818;stroke-width:1;stroke-linejoin:miter;stroke-miterlimit:10;"/><line style="stroke:#181818;stroke-width:1;" x1="2112.0839" x2="2129.6557" y1="1885.2441" y2="1885.2441"/><line style="stroke:#181818;stroke-width:1;" x1="2129.6557" x2="2129.6557" y1="1885.2441" y2="1907.2441"/><polygon fill="#181818" points="2125.6557,1897.2441,2129.6557,1907.2441,2133.6557,1897.2441,2129.6557,1901.2441" style="stroke:#181818;stroke-width:1;stroke-linejoin:miter;stroke-miterlimit:10;"/><line style="stroke:#181818;stroke-width:1;" x1="1923.1938" x2="1923.1938" y1="1942.3379" y2="1960.3379"/><line style="stroke:#181818;stroke-width:1;" x1="1923.1938" x2="2014.4247" y1="1960.3379" y2="1960.3379"/><polygon fill="#181818" points="2004.4247,1956.3379,2014.4247,1960.3379,2004.4247,1964.3379,2008.4247,1960.3379" style="stroke:#181818;stroke-width:1;stroke-linejoin:miter;stroke-miterlimit:10;"/><line style="stroke:#181818;stroke-width:1;" x1="2129.6557" x2="2129.6557" y1="1942.3379" y2="1960.3379"/><line style="stroke:#181818;stroke-width:1;" x1="2129.6557" x2="2038.4247" y1="1960.3379" y2="1960.3379"/><polygon fill="#181818" points="2048.4247,1956.3379,2038.4247,1960.3379,2048.4247,1964.3379,2044.4247,1960.3379" style="stroke:#181818;stroke-width:1;stroke-linejoin:miter;stroke-miterlimit:10;"/><line style="stroke:#181818;stroke-width:1;" x1="2026.4247" x2="2026.4247" y1="1838.2441" y2="1873.2441"/><polygon fill="#181818" points="2022.4247,1863.2441,2026.4247,1873.2441,2030.4247,1863.2441,2026.4247,1867.2441" style="stroke:#181818;stroke-width:1;stroke-linejoin:miter;stroke-miterlimit:10;"/><line style="stroke:#181818;stroke-width:1;" x1="2026.4247" x2="2026.4247" y1="1972.3379" y2="1998.4316"/><polygon fill="#181818" points="2022.4247,1988.4316,2026.4247,1998.4316,2030.4247,1988.4316,2026.4247,1992.4316" style="stroke:#181818;stroke-width:1;stroke-linejoin:miter;stroke-miterlimit:10;"/><line style="stroke:#181818;stroke-width:1;" x1="2026.4247" x2="2026.4247" y1="2149.8066" y2="2169.8066"/><polygon fill="#181818" points="2022.4247,2159.8066,2026.4247,2169.8066,2030.4247,2159.8066,2026.4247,2163.8066" style="stroke:#181818;stroke-width:1;stroke-linejoin:miter;stroke-miterlimit:10;"/><line style="stroke:#181818;stroke-width:1;" x1="2280.4174" x2="2280.4174" y1="1684.0566" y2="1704.0566"/><polygon fill="#181818" points="2276.4174,1694.0566,2280.4174,1704.0566,2284.4174,1694.0566,2280.4174,1698.0566" style="stroke:#181818;stroke-width:1;stroke-linejoin:miter;stroke-miterlimit:10;"/><line style="stroke:#181818;stroke-width:1;" x1="498.4379" x2="498.4379" y1="783.0176" y2="788.0176"/><line style="stroke:#181818;stroke-width:1;" x1="498.4379" x2="1674.852" y1="788.0176" y2="788.0176"/><line style="stroke:#181818;stroke-width:1;" x1="1674.852" x2="1674.852" y1="788.0176" y2="803.0176"/><polygon fill="#181818" points="1670.852,793.0176,1674.852,803.0176,1678.852,793.0176,1674.852,797.0176" style="stroke:#181818;stroke-width:1;stroke-linejoin:miter;stroke-miterlimit:10;"/><line style="stroke:#181818;stroke-width:1;" x1="1477.5658" x2="1477.5658" y1="1227.8926" y2="1238.002"/><line style="stroke:#181818;stroke-width:1;" x1="1477.5658" x2="301.1517" y1="1238.002" y2="1238.002"/><line style="stroke:#181818;stroke-width:1;" x1="301.1517" x2="301.1517" y1="1238.002" y2="1255.502"/><polygon fill="#181818" points="297.1517,1245.502,301.1517,1255.502,305.1517,1245.502,301.1517,1249.502" style="stroke:#181818;stroke-width:1;stroke-linejoin:miter;stroke-miterlimit:10;"/><line style="stroke:#181818;stroke-width:1;" x1="301.1517" x2="301.1517" y1="1419.6816" y2="1424.6816"/><line style="stroke:#181818;stroke-width:1;" x1="301.1517" x2="1477.5658" y1="1424.6816" y2="1424.6816"/><line style="stroke:#181818;stroke-width:1;" x1="1477.5658" x2="1477.5658" y1="1424.6816" y2="1439.6816"/><polygon fill="#181818" points="1473.5658,1429.6816,1477.5658,1439.6816,1481.5658,1429.6816,1477.5658,1433.6816" style="stroke:#181818;stroke-width:1;stroke-linejoin:miter;stroke-miterlimit:10;"/><line style="stroke:#181818;stroke-width:1;" x1="1251.0803" x2="1251.0803" y1="1684.0566" y2="1689.0566"/><line style="stroke:#181818;stroke-width:1;" x1="1251.0803" x2="1857.4465" y1="1689.0566" y2="1689.0566"/><line style="stroke:#181818;stroke-width:1;" x1="1857.4465" x2="1857.4465" y1="1689.0566" y2="1704.0566"/><polygon fill="#181818" points="1853.4465,1694.0566,1857.4465,1704.0566,1861.4465,1694.0566,1857.4465,1698.0566" style="stroke:#181818;stroke-width:1;stroke-linejoin:miter;stroke-miterlimit:10;"/><line style="stroke:#181818;stroke-width:1;" x1="1082.1021" x2="1082.1021" y1="1908.3379" y2="1925.8379"/><line style="stroke:#181818;stroke-width:1;" x1="1082.1021" x2="90.293" y1="1925.8379" y2="1925.8379"/><line style="stroke:#181818;stroke-width:1;" x1="90.293" x2="90.293" y1="1925.8379" y2="1943.3379"/><polygon fill="#181818" points="86.293,1933.3379,90.293,1943.3379,94.293,1933.3379,90.293,1937.3379" style="stroke:#181818;stroke-width:1;stroke-linejoin:miter;stroke-miterlimit:10;"/><line style="stroke:#181818;stroke-width:1;" x1="90.293" x2="90.293" y1="1978.4316" y2="1987.0254"/><line style="stroke:#181818;stroke-width:1;" x1="90.293" x2="1082.1021" y1="1987.0254" y2="1987.0254"/><line style="stroke:#181818;stroke-width:1;" x1="1082.1021" x2="1082.1021" y1="1987.0254" y2="2004.5254"/><polygon fill="#181818" points="1078.1021,1994.5254,1082.1021,2004.5254,1086.1021,1994.5254,1082.1021,1998.5254" style="stroke:#181818;stroke-width:1;stroke-linejoin:miter;stroke-miterlimit:10;"/><line style="stroke:#181818;stroke-width:1;" x1="2026.4247" x2="2026.4247" y1="2033.5254" y2="2044.6191"/><line style="stroke:#181818;stroke-width:1;" x1="2026.4247" x2="243.6445" y1="2044.6191" y2="2044.6191"/><line style="stroke:#181818;stroke-width:1;" x1="243.6445" x2="243.6445" y1="2044.6191" y2="2059.6191"/><polygon fill="#181818" points="239.6445,2049.6191,243.6445,2059.6191,247.6445,2049.6191,243.6445,2053.6191" style="stroke:#181818;stroke-width:1;stroke-linejoin:miter;stroke-miterlimit:10;"/><line style="stroke:#181818;stroke-width:1;" x1="243.6445" x2="243.6445" y1="2094.7129" y2="2099.7129"/><line style="stroke:#181818;stroke-width:1;" x1="243.6445" x2="2026.4247" y1="2099.7129" y2="2099.7129"/><line style="stroke:#181818;stroke-width:1;" x1="2026.4247" x2="2026.4247" y1="2099.7129" y2="2114.7129"/><polygon fill="#181818" points="2022.4247,2104.7129,2026.4247,2114.7129,2030.4247,2104.7129,2026.4247,2108.7129" style="stroke:#181818;stroke-width:1;stroke-linejoin:miter;stroke-miterlimit:10;"/><line style="stroke:#181818;stroke-width:1;" x1="1297.3291" x2="2026.4247" y1="1771.1504" y2="1771.1504"/><line style="stroke:#181818;stroke-width:1;" x1="2026.4247" x2="2026.4247" y1="1771.1504" y2="1803.1504"/><polygon fill="#181818" points="2022.4247,1793.1504,2026.4247,1803.1504,2030.4247,1793.1504,2026.4247,1797.1504" style="stroke:#181818;stroke-width:1;stroke-linejoin:miter;stroke-miterlimit:10;"/><line style="stroke:#181818;stroke-width:1;" x1="1857.4465" x2="1857.4465" y1="1739.1504" y2="1744.1504"/><line style="stroke:#181818;stroke-width:1;" x1="1857.4465" x2="1251.0803" y1="1744.1504" y2="1744.1504"/><line style="stroke:#181818;stroke-width:1;" x1="1251.0803" x2="1251.0803" y1="1744.1504" y2="1759.1504"/><polygon fill="#181818" points="1247.0803,1749.1504,1251.0803,1759.1504,1255.0803,1749.1504,1251.0803,1753.1504" style="stroke:#181818;stroke-width:1;stroke-linejoin:miter;stroke-miterlimit:10;"/><line style="stroke:#181818;stroke-width:1;" x1="2280.4174" x2="2280.4174" y1="1739.1504" y2="1744.1504"/><line style="stroke:#181818;stroke-width:1;" x1="2280.4174" x2="527.6372" y1="1744.1504" y2="1744.1504"/><line style="stroke:#181818;stroke-width:1;" x1="527.6372" x2="527.6372" y1="1744.1504" y2="1759.1504"/><polygon fill="#181818" points="523.6372,1749.1504,527.6372,1759.1504,531.6372,1749.1504,527.6372,1753.1504" style="stroke:#181818;stroke-width:1;stroke-linejoin:miter;stroke-miterlimit:10;"/><line style="stroke:#181818;stroke-width:1;" x1="1558.0607" x2="2280.4174" y1="1616.9629" y2="1616.9629"/><line style="stroke:#181818;stroke-width:1;" x1="2280.4174" x2="2280.4174" y1="1616.9629" y2="1648.9629"/><polygon fill="#181818" points="2276.4174,1638.9629,2280.4174,1648.9629,2284.4174,1638.9629,2280.4174,1642.9629" style="stroke:#181818;stroke-width:1;stroke-linejoin:miter;stroke-miterlimit:10;"/><line style="stroke:#181818;stroke-width:1;" x1="1727.154" x2="1739.154" y1="1035.3926" y2="1035.3926"/><line style="stroke:#181818;stroke-width:1;" x1="1739.154" x2="1739.154" y1="1035.3926" y2="1053.3926"/><line style="stroke:#181818;stroke-width:1;" x1="1739.154" x2="695.7241" y1="1053.3926" y2="1053.3926"/><line style="stroke:#181818;stroke-width:1;" x1="695.7241" x2="695.7241" y1="1053.3926" y2="1067.3926"/><polygon fill="#181818" points="691.7241,1057.3926,695.7241,1067.3926,699.7241,1057.3926,695.7241,1061.3926" style="stroke:#181818;stroke-width:1;stroke-linejoin:miter;stroke-miterlimit:10;"/><text fill="#000000" font-family="sans-serif" font-size="18" lengthAdjust="spacing" textLength="96.082" x="451.5188" y="74.75">Kh&#225;ch h&#224;ng</text><text fill="#000000" font-family="sans-serif" font-size="18" lengthAdjust="spacing" textLength="37.0195" x="1370.0921" y="74.75">Staff</text><text fill="#000000" font-family="sans-serif" font-size="18" lengthAdjust="spacing" textLength="51.0205" x="2046.762" y="74.75">Admin</text><?plantuml-src fLRDQXj94BxFKzGnFeImXroaGt2yO8FZh1CxY_Su7etLJKRTGkfnKD0b-E33ic2nX12M1Il2B4xMP5ddaXb23Yty7lqcM_qpCpqZsV4ICFBGLLq_NtrLrOAA98OdwGZ4GFxD2CmdAdzDxuc1ocP0v2dheeJZxm_tWNNbwIW8nfj4JYDYfUDWACA125hpa_aHgZ6Yiei-7CfJ3aAUKdXEE9fYxQ2r5_SWKVclU7MeyWjqTJLbrWfAruZAVsF-8KGg-ulL8ce70Js0EsloN-R24dZjJmhe5QyLCJvOmVEOmPrTesE4Am50QnU_E8pa-zGOJvUasqOz_3DkR4W99Z2btgtI_Fn4ttRHzbJ-1zLUqCylJG--ZlOG9yDOXrUXV1SsE7w0e2f_nHRj-1L1T85usiOYwz036tk1PIA_G8UtyEGkF5Bv6uguOocWZu2SzypnJaYX9p-1G84vmDf-qf3fqYK8SxSudKOEcTQMquU8K1r0zbN0eShERAbUQRNMitx2mmveT-JU8Ut47BLLVgune8oWYZ1qqrbDyT0FJ1jWNCGme5qY310FLVPHm7wgyhUHqPfHYEIbaTtW0p4nbbpWwyWwluukeV6E20yEnbhZiMOlecf1s9VNayLagHdjWL2ttDh4sXprCCNmsXYRUalPx37IumDgplgwduvBEcwKHuu-sqI-XquwmfDcT6KpzEGCdcwjshC6x01FOv4E66p5WuY4oB1Xx0IhgI1yG5-6Wd9cpZomJRmbu74lf0cGgt-G_9XtHsKV67IDgEmuTwCnMemHLvDbLbmYynDvYKTTUKaNYBGaftN4-oD2co8YJ3FtCtCIl9QVmNEK7tyZ9zU7I7SO4lvYm7dFYB4G3KXjNYN5geIAuQexoHWIPimKvbnk7ZbgPckikR6LN0YQFZkU2Fi7XsWDXP98Q_9onK6YPqbsrhTpVJ7ejbDp_yQh7QJrkBoB_OhgYKbCgFntfjT1yuw7ZGtpqQq6RX6XYJ75b1ZiutQfvMy7BbuEHxgtig_jwj8w3Ra_bh4nEOQd-LTfbHzBcEaNSz7fCXkrJ0q-UbSQQ4LPFnm-cBmRxuYzg2mD1UytpTvkaomMHmy0US7CBfuuNRTnZUybyUlQR6C7NatTuZsFDBIQUrnEJKzFeef4F_rO-RP5ma5qn8eNWHvkxyfLlmHxczdFZxV3KStGdduywDtchq3RGaRPi-1sOYEFrXuwAXWzds1RDPVf_ok-low-PQbPW--WW9zTK05cDtZPlxig_s1speHUsxrkgDa-NIn5S0CAzV4iAcTEhfygzXrIM2ipgE8Fwh5xksqbM4XYOO_vMwPBpTi00Rp0I7t7jzilNWBsceksV5tPE9-aSkezApVgkosXUgIYaMESIDdCJXc3fh5cRVq7?></g></svg>