<svg xmlns="http://www.w3.org/2000/svg" xmlns:xlink="http://www.w3.org/1999/xlink" contentStyleType="text/css" data-diagram-type="ACTIVITY" height="1943px" preserveAspectRatio="none" style="width:1556px;height:1943px;background:#FFFFFF;" version="1.1" viewBox="0 0 1556 1943" width="1556px" zoomAndPan="magnify"><?plantuml 1.2026.6?><defs/><g><g class="title" data-source-line="1"><text fill="#000000" font-family="sans-serif" font-size="14" font-weight="700" lengthAdjust="spacing" textLength="234.1377" x="659.9567" y="34.5332">Quy tr&#236;nh &#273;&#7863;t h&#224;ng c&#7911;a kh&#225;ch h&#224;ng</text></g><rect fill="none" height="22.6406" style="stroke:none;stroke-width:1;" width="1509.051" x="20" y="56.0645"/><rect fill="#ADD8E6" height="1866.0908" style="stroke:#ADD8E6;stroke-width:1;" width="432.6853" x="20" y="56.0645"/><ellipse cx="212.2808" cy="93.7051" fill="#222222" rx="10" ry="10" style="stroke:#222222;stroke-width:1;"/><rect fill="#FFFFE0" height="35.0938" rx="12.5" ry="12.5" style="stroke:#181818;stroke-width:0.5;" width="110.7031" x="156.9292" y="123.7051"/><text fill="#000000" font-family="sans-serif" font-size="12" lengthAdjust="spacing" textLength="90.7031" x="166.9292" y="146.1621">Truy c&#7853;p website</text><rect fill="#FFFFE0" height="35.0938" rx="12.5" ry="12.5" style="stroke:#181818;stroke-width:0.5;" width="167.375" x="128.5933" y="178.7988"/><text fill="#000000" font-family="sans-serif" font-size="12" lengthAdjust="spacing" textLength="147.375" x="138.5933" y="201.2559">T&#236;m ki&#7871;m v&#224; xem s&#7843;n ph&#7849;m</text><rect fill="#FFFFE0" height="35.0938" rx="12.5" ry="12.5" style="stroke:#181818;stroke-width:0.5;" width="178.7656" x="122.8979" y="233.8926"/><text fill="#000000" font-family="sans-serif" font-size="12" lengthAdjust="spacing" textLength="158.7656" x="132.8979" y="256.3496">Th&#234;m s&#7843;n ph&#7849;m v&#224;o gi&#7887; h&#224;ng</text><rect fill="#FFFFE0" height="35.0938" rx="12.5" ry="12.5" style="stroke:#181818;stroke-width:0.5;" width="130.7188" x="146.9214" y="332.9863"/><text fill="#000000" font-family="sans-serif" font-size="12" lengthAdjust="spacing" textLength="110.7188" x="156.9214" y="355.4434">Xem th&#234;m s&#7843;n ph&#7849;m</text><polygon fill="#FFFFE0" points="212.2808,288.9863,224.2808,300.9863,212.2808,312.9863,200.2808,300.9863,212.2808,288.9863" style="stroke:#181818;stroke-width:0.5;stroke-linejoin:miter;stroke-miterlimit:10;"/><polygon fill="#FFFFE0" points="177.4304,388.0801,247.1311,388.0801,259.1311,400.0801,247.1311,412.0801,177.4304,412.0801,165.4304,400.0801,177.4304,388.0801" style="stroke:#181818;stroke-width:0.5;stroke-linejoin:miter;stroke-miterlimit:10;"/><text fill="#000000" font-family="sans-serif" font-size="11" lengthAdjust="spacing" textLength="31.8076" x="216.2808" y="423.499">Kh&#244;ng</text><text fill="#000000" font-family="sans-serif" font-size="11" lengthAdjust="spacing" textLength="69.7007" x="177.4304" y="404.5811">Ti&#7871;p t&#7909;c mua?</text><text fill="#000000" font-family="sans-serif" font-size="11" lengthAdjust="spacing" textLength="14.0615" x="259.1311" y="397.6631">C&#243;</text><rect fill="#FFFFE0" height="35.0938" rx="12.5" ry="12.5" style="stroke:#181818;stroke-width:0.5;" width="121.4141" x="151.5737" y="444.999"/><text fill="#000000" font-family="sans-serif" font-size="12" lengthAdjust="spacing" textLength="101.4141" x="161.5737" y="467.4561">V&#224;o trang gi&#7887; h&#224;ng</text><rect fill="#FFFFE0" height="35.0938" rx="12.5" ry="12.5" style="stroke:#181818;stroke-width:0.5;" width="181.3145" x="121.6235" y="500.0928"/><text fill="#000000" font-family="sans-serif" font-size="12" lengthAdjust="spacing" textLength="161.3145" x="131.6235" y="522.5498">Ki&#7875;m tra v&#224; c&#7853;p nh&#7853;t s&#7889; l&#432;&#7907;ng</text><rect fill="#FFFFE0" height="35.0938" rx="12.5" ry="12.5" style="stroke:#181818;stroke-width:0.5;" width="126.0723" x="149.2446" y="604.1045"/><text fill="#000000" font-family="sans-serif" font-size="12" lengthAdjust="spacing" textLength="106.0723" x="159.2446" y="626.5615">&#272;&#259;ng nh&#7853;p/&#272;&#259;ng k&#253;</text><polygon fill="#FFFFE0" points="174.6643,555.1865,249.8972,555.1865,261.8972,567.1865,249.8972,579.1865,174.6643,579.1865,162.6643,567.1865,174.6643,555.1865" style="stroke:#181818;stroke-width:0.5;stroke-linejoin:miter;stroke-miterlimit:10;"/><text fill="#000000" font-family="sans-serif" font-size="11" lengthAdjust="spacing" textLength="31.8076" x="216.2808" y="590.6055">Kh&#244;ng</text><text fill="#000000" font-family="sans-serif" font-size="11" lengthAdjust="spacing" textLength="75.2329" x="174.6643" y="571.6875">&#272;&#227; &#273;&#259;ng nh&#7853;p?</text><polygon fill="#FFFFE0" points="212.2808,659.1982,224.2808,671.1982,212.2808,683.1982,200.2808,671.1982,212.2808,659.1982" style="stroke:#181818;stroke-width:0.5;stroke-linejoin:miter;stroke-miterlimit:10;"/><path d="M307.3315,693.1982 L307.3315,718.7256 L287.3315,722.7256 L307.3315,726.7256 L307.3315,752.2529 A0,0 0 0 0 307.3315,752.2529 L445.2935,752.2529 A0,0 0 0 0 445.2935,752.2529 L445.2935,703.1982 L435.2935,693.1982 L307.3315,693.1982 A0,0 0 0 0 307.3315,693.1982" fill="#FEFFDD" style="stroke:#181818;stroke-width:0.5;"/><path d="M435.2935,693.1982 L435.2935,703.1982 L445.2935,703.1982 L435.2935,693.1982" fill="#FEFFDD" style="stroke:#181818;stroke-width:0.5;"/><text fill="#000000" font-family="sans-serif" font-size="13" lengthAdjust="spacing" textLength="116.9619" x="313.3315" y="711.6934">- H&#7885; t&#234;n ng&#432;&#7901;i nh&#7853;n</text><text fill="#000000" font-family="sans-serif" font-size="13" lengthAdjust="spacing" textLength="83.8335" x="313.3315" y="728.0449">- S&#7889; &#273;i&#7879;n tho&#7841;i</text><text fill="#000000" font-family="sans-serif" font-size="13" lengthAdjust="spacing" textLength="108.3989" x="313.3315" y="744.3965">- &#272;&#7883;a ch&#7881; giao h&#224;ng</text><rect fill="#FFFFE0" height="35.0938" rx="12.5" ry="12.5" style="stroke:#181818;stroke-width:0.5;" width="150.1016" x="137.23" y="705.1787"/><text fill="#000000" font-family="sans-serif" font-size="12" lengthAdjust="spacing" textLength="130.1016" x="147.23" y="727.6357">&#272;i&#7873;n th&#244;ng tin giao h&#224;ng</text><rect fill="#FFFFE0" height="35.0938" rx="12.5" ry="12.5" style="stroke:#181818;stroke-width:0.5;" width="114.7168" x="154.9224" y="821.1709"/><text fill="#000000" font-family="sans-serif" font-size="12" lengthAdjust="spacing" textLength="94.7168" x="164.9224" y="843.6279">Nh&#7853;p m&#227; voucher</text><polygon fill="#FFFFE0" points="171.9277,772.2529,252.6338,772.2529,264.6338,784.2529,252.6338,796.2529,171.9277,796.2529,159.9277,784.2529,171.9277,772.2529" style="stroke:#181818;stroke-width:0.5;stroke-linejoin:miter;stroke-miterlimit:10;"/><text fill="#000000" font-family="sans-serif" font-size="11" lengthAdjust="spacing" textLength="14.0615" x="216.2808" y="807.6719">C&#243;</text><text fill="#000000" font-family="sans-serif" font-size="11" lengthAdjust="spacing" textLength="80.7061" x="171.9277" y="788.7539">C&#243; m&#227; voucher?</text><polygon fill="#FFFFE0" points="212.2808,995.3584,224.2808,1007.3584,212.2808,1019.3584,200.2808,1007.3584,212.2808,995.3584" style="stroke:#181818;stroke-width:0.5;stroke-linejoin:miter;stroke-miterlimit:10;"/><rect fill="#FFFFE0" height="35.0938" rx="12.5" ry="12.5" style="stroke:#181818;stroke-width:0.5;" width="182.0469" x="121.2573" y="1149.5459"/><text fill="#000000" font-family="sans-serif" font-size="12" lengthAdjust="spacing" textLength="162.0469" x="131.2573" y="1172.0029">Ch&#7885;n ph&#432;&#417;ng th&#7913;c thanh to&#225;n</text><polygon fill="#FFFFE0" points="176.5415,1204.6396,248.02,1204.6396,260.02,1216.6396,248.02,1228.6396,176.5415,1228.6396,164.5415,1216.6396,176.5415,1204.6396" style="stroke:#181818;stroke-width:0.5;stroke-linejoin:miter;stroke-miterlimit:10;"/><text fill="#000000" font-family="sans-serif" font-size="11" lengthAdjust="spacing" textLength="71.4785" x="176.5415" y="1221.1406">Ph&#432;&#417;ng th&#7913;c?</text><rect fill="#FFFFE0" height="35.0938" rx="12.5" ry="12.5" style="stroke:#181818;stroke-width:0.5;" width="108.7461" x="37.0068" y="1336.4053"/><text fill="#000000" font-family="sans-serif" font-size="12" lengthAdjust="spacing" textLength="88.7461" x="47.0068" y="1358.8623">Ch&#7885;n ng&#226;n h&#224;ng</text><rect fill="#FFFFE0" height="35.0938" rx="12.5" ry="12.5" style="stroke:#181818;stroke-width:0.5;" width="118.0742" x="32.3428" y="1406.499"/><text fill="#000000" font-family="sans-serif" font-size="12" lengthAdjust="spacing" textLength="98.0742" x="42.3428" y="1428.9561">Nh&#7853;p th&#244;ng tin th&#7867;</text><rect fill="#FFFFE0" height="35.0938" rx="12.5" ry="12.5" style="stroke:#181818;stroke-width:0.5;" width="130.7598" x="26" y="1476.5928"/><text fill="#000000" font-family="sans-serif" font-size="12" lengthAdjust="spacing" textLength="110.7598" x="36" y="1499.0498">X&#225;c nh&#7853;n thanh to&#225;n</text><rect fill="#FFFFE0" height="35.0938" rx="12.5" ry="12.5" style="stroke:#181818;stroke-width:0.5;" width="136.0742" x="285.9919" y="1310.3115"/><text fill="#000000" font-family="sans-serif" font-size="12" lengthAdjust="spacing" textLength="116.0742" x="295.9919" y="1332.7686">Ch&#7885;n &#273;&#7889;i t&#225;c t&#224;i ch&#237;nh</text><rect fill="#FFFFE0" height="35.0938" rx="12.5" ry="12.5" style="stroke:#181818;stroke-width:0.5;" width="188.7852" x="259.6365" y="1380.4053"/><text fill="#000000" font-family="sans-serif" font-size="12" lengthAdjust="spacing" textLength="168.7852" x="269.6365" y="1402.8623">Ch&#7885;n k&#7923; h&#7841;n (6/12/18/24 th&#225;ng)</text><rect fill="#FFFFE0" height="35.0938" rx="12.5" ry="12.5" style="stroke:#181818;stroke-width:0.5;" width="189.3125" x="259.3728" y="1450.499"/><text fill="#000000" font-family="sans-serif" font-size="12" lengthAdjust="spacing" textLength="169.3125" x="269.3728" y="1472.9561">&#272;i&#7873;n th&#244;ng tin v&#224; upload gi&#7845;y t&#7901;</text><polygon fill="#FFFFE0" points="212.2808,1745.9678,212.2808,1745.9678,224.2808,1757.9678,212.2808,1769.9678,212.2808,1769.9678,200.2808,1757.9678,212.2808,1745.9678" style="stroke:#181818;stroke-width:0.5;stroke-linejoin:miter;stroke-miterlimit:10;"/><rect fill="#FFFFE0" height="35.0938" rx="12.5" ry="12.5" style="stroke:#181818;stroke-width:0.5;" width="132.7344" x="145.9136" y="1789.9678"/><text fill="#000000" font-family="sans-serif" font-size="12" lengthAdjust="spacing" textLength="112.7344" x="155.9136" y="1812.4248">Nh&#7853;n email x&#225;c nh&#7853;n</text><rect fill="#FFFFE0" height="35.0938" rx="12.5" ry="12.5" style="stroke:#181818;stroke-width:0.5;" width="121.2793" x="151.6411" y="1845.0615"/><text fill="#000000" font-family="sans-serif" font-size="12" lengthAdjust="spacing" textLength="101.2793" x="161.6411" y="1867.5186">Theo d&#245;i &#273;&#417;n h&#224;ng</text><ellipse cx="212.2808" cy="1911.1553" fill="none" rx="11" ry="11" style="stroke:#222222;stroke-width:1;"/><ellipse cx="212.2808" cy="1911.1553" fill="#222222" rx="6" ry="6" style="stroke:#222222;stroke-width:1;"/><line style="stroke:#000000;stroke-width:1.5;" x1="20" x2="20" y1="56.0645" y2="1922.1553"/><rect fill="#90EE90" height="1866.0908" style="stroke:#90EE90;stroke-width:1;" width="875.731" x="452.6853" y="56.0645"/><polygon fill="#FFFFE0" points="845.9453,876.2646,927.1563,876.2646,939.1563,888.2646,927.1563,900.2646,845.9453,900.2646,833.9453,888.2646,845.9453,876.2646" style="stroke:#181818;stroke-width:0.5;stroke-linejoin:miter;stroke-miterlimit:10;"/><text fill="#000000" font-family="sans-serif" font-size="11" lengthAdjust="spacing" textLength="81.2109" x="845.9453" y="892.7656">Voucher h&#7907;p l&#7879;?</text><text fill="#000000" font-family="sans-serif" font-size="11" lengthAdjust="spacing" textLength="14.0615" x="819.8838" y="885.8477">C&#243;</text><text fill="#000000" font-family="sans-serif" font-size="11" lengthAdjust="spacing" textLength="31.8076" x="939.1563" y="885.8477">Kh&#244;ng</text><rect fill="#FFFFE0" height="35.0938" rx="12.5" ry="12.5" style="stroke:#181818;stroke-width:0.5;" width="113.3984" x="767.2461" y="910.2646"/><text fill="#000000" font-family="sans-serif" font-size="12" lengthAdjust="spacing" textLength="93.3984" x="777.2461" y="932.7217">&#193;p d&#7909;ng gi&#7843;m gi&#225;</text><rect fill="#FFFFE0" height="35.0938" rx="12.5" ry="12.5" style="stroke:#181818;stroke-width:0.5;" width="92.7207" x="902.7959" y="910.2646"/><text fill="#000000" font-family="sans-serif" font-size="12" lengthAdjust="spacing" textLength="72.7207" x="912.7959" y="932.7217">Th&#244;ng b&#225;o l&#7895;i</text><polygon fill="#FFFFE0" points="886.5508,951.3584,898.5508,963.3584,886.5508,975.3584,874.5508,963.3584,886.5508,951.3584" style="stroke:#181818;stroke-width:0.5;stroke-linejoin:miter;stroke-miterlimit:10;"/><rect fill="#FFFFE0" height="35.0938" rx="12.5" ry="12.5" style="stroke:#181818;stroke-width:0.5;" width="176.8027" x="798.1494" y="1039.3584"/><text fill="#000000" font-family="sans-serif" font-size="12" lengthAdjust="spacing" textLength="156.8027" x="808.1494" y="1061.8154">T&#7921; &#273;&#7897;ng &#225;p d&#7909;ng khuy&#7871;n m&#227;i</text><rect fill="#FFFFE0" height="35.0938" rx="12.5" ry="12.5" style="stroke:#181818;stroke-width:0.5;" width="93.3828" x="839.8594" y="1094.4521"/><text fill="#000000" font-family="sans-serif" font-size="12" lengthAdjust="spacing" textLength="73.3828" x="849.8594" y="1116.9092">T&#237;nh t&#7893;ng ti&#7873;n</text><rect fill="#FFFFE0" height="50.1875" rx="12.5" ry="12.5" style="stroke:#181818;stroke-width:0.5;" width="103.7656" x="468.8425" y="1266.3115"/><text fill="#000000" font-family="sans-serif" font-size="12" lengthAdjust="spacing" textLength="75.2578" x="478.8425" y="1288.7686">T&#7841;o &#273;&#417;n h&#224;ng</text><text fill="#000000" font-family="sans-serif" font-size="12" lengthAdjust="spacing" textLength="83.7656" x="478.8425" y="1303.8623">"Ch&#7901; x&#225;c nh&#7853;n"</text><rect fill="#FFFFE0" height="35.0938" rx="12.5" ry="12.5" style="stroke:#181818;stroke-width:0.5;" width="91.3672" x="475.0417" y="1351.499"/><text fill="#000000" font-family="sans-serif" font-size="12" lengthAdjust="spacing" textLength="71.3672" x="485.0417" y="1373.9561">Gi&#7843;m t&#7891;n kho</text><rect fill="#FFFFE0" height="35.0938" rx="12.5" ry="12.5" style="stroke:#181818;stroke-width:0.5;" width="124.0801" x="458.6853" y="1421.5928"/><text fill="#000000" font-family="sans-serif" font-size="12" lengthAdjust="spacing" textLength="104.0801" x="468.6853" y="1444.0498">G&#7917;i email x&#225;c nh&#7853;n</text><rect fill="#FFFFE0" height="35.0938" rx="12.5" ry="12.5" style="stroke:#181818;stroke-width:0.5;" width="176.0879" x="677.606" y="1266.3115"/><text fill="#000000" font-family="sans-serif" font-size="12" lengthAdjust="spacing" textLength="156.0879" x="687.606" y="1288.7686">Chuy&#7875;n &#273;&#7871;n VNPay Gateway</text><rect fill="#FFFFE0" height="35.0938" rx="12.5" ry="12.5" style="stroke:#181818;stroke-width:0.5;" width="182.5039" x="592.7654" y="1590.6865"/><text fill="#000000" font-family="sans-serif" font-size="12" lengthAdjust="spacing" textLength="162.5039" x="602.7654" y="1613.1436">T&#7841;o &#273;&#417;n h&#224;ng "&#272;&#227; thanh to&#225;n"</text><rect fill="#FFFFE0" height="35.0938" rx="12.5" ry="12.5" style="stroke:#181818;stroke-width:0.5;" width="91.3672" x="638.3337" y="1645.7803"/><text fill="#000000" font-family="sans-serif" font-size="12" lengthAdjust="spacing" textLength="71.3672" x="648.3337" y="1668.2373">Gi&#7843;m t&#7891;n kho</text><rect fill="#FFFFE0" height="35.0938" rx="12.5" ry="12.5" style="stroke:#181818;stroke-width:0.5;" width="124.0801" x="621.9773" y="1700.874"/><text fill="#000000" font-family="sans-serif" font-size="12" lengthAdjust="spacing" textLength="104.0801" x="631.9773" y="1723.3311">G&#7917;i email x&#225;c nh&#7853;n</text><rect fill="#FFFFE0" height="35.0938" rx="12.5" ry="12.5" style="stroke:#181818;stroke-width:0.5;" width="92.709" x="800.928" y="1590.6865"/><text fill="#000000" font-family="sans-serif" font-size="12" lengthAdjust="spacing" textLength="72.709" x="810.928" y="1613.1436">H&#7911;y giao d&#7883;ch</text><rect fill="#FFFFE0" height="35.0938" rx="12.5" ry="12.5" style="stroke:#181818;stroke-width:0.5;" width="92.7207" x="800.9221" y="1645.7803"/><text fill="#000000" font-family="sans-serif" font-size="12" lengthAdjust="spacing" textLength="72.7207" x="810.9221" y="1668.2373">Th&#244;ng b&#225;o l&#7895;i</text><ellipse cx="847.2825" cy="1711.874" fill="none" rx="11" ry="11" style="stroke:#222222;stroke-width:1;"/><ellipse cx="847.2825" cy="1711.874" fill="#222222" rx="6" ry="6" style="stroke:#222222;stroke-width:1;"/><polygon fill="#FFFFE0" points="1087.6343,1266.3115,1174.3506,1266.3115,1186.3506,1278.3115,1174.3506,1290.3115,1087.6343,1290.3115,1075.6343,1278.3115,1087.6343,1266.3115" style="stroke:#181818;stroke-width:0.5;stroke-linejoin:miter;stroke-miterlimit:10;"/><text fill="#000000" font-family="sans-serif" font-size="11" lengthAdjust="spacing" textLength="86.7163" x="1087.6343" y="1282.8125">&#272;&#417;n h&#224;ng &gt;= 3tr?</text><text fill="#000000" font-family="sans-serif" font-size="11" lengthAdjust="spacing" textLength="14.0615" x="1061.5728" y="1275.8945">C&#243;</text><text fill="#000000" font-family="sans-serif" font-size="11" lengthAdjust="spacing" textLength="31.8076" x="1186.3506" y="1275.8945">Kh&#244;ng</text><rect fill="#FFFFE0" height="35.0938" rx="12.5" ry="12.5" style="stroke:#181818;stroke-width:0.5;" width="173.6738" x="941.4622" y="1520.5928"/><text fill="#000000" font-family="sans-serif" font-size="12" lengthAdjust="spacing" textLength="153.6738" x="951.4622" y="1543.0498">T&#7841;o &#273;&#417;n "Ch&#7901; duy&#7879;t tr&#7843; g&#243;p"</text><rect fill="#FFFFE0" height="35.0938" rx="12.5" ry="12.5" style="stroke:#181818;stroke-width:0.5;" width="163.3086" x="946.6448" y="1590.6865"/><text fill="#000000" font-family="sans-serif" font-size="12" lengthAdjust="spacing" textLength="143.3086" x="956.6448" y="1613.1436">Th&#244;ng b&#225;o ch&#7901; li&#234;n h&#7879; 24h</text><rect fill="#FFFFE0" height="35.0938" rx="12.5" ry="12.5" style="stroke:#181818;stroke-width:0.5;" width="181.4609" x="1142.9553" y="1310.3115"/><text fill="#000000" font-family="sans-serif" font-size="12" lengthAdjust="spacing" textLength="161.4609" x="1152.9553" y="1332.7686">Th&#244;ng b&#225;o kh&#244;ng &#273;&#7911; &#273;i&#7873;u ki&#7879;n</text><ellipse cx="1233.6858" cy="1391.4053" fill="none" rx="11" ry="11" style="stroke:#222222;stroke-width:1;"/><ellipse cx="1233.6858" cy="1391.4053" fill="#222222" rx="6" ry="6" style="stroke:#222222;stroke-width:1;"/><line style="stroke:#000000;stroke-width:1.5;" x1="452.6853" x2="452.6853" y1="56.0645" y2="1922.1553"/><rect fill="#FFA500" height="1866.0908" style="stroke:#FFA500;stroke-width:1;" width="199.1343" x="1328.4163" y="56.0645"/><polygon fill="#FFFFE0" points="1359.4778,1546.6865,1478.7429,1546.6865,1490.7429,1558.6865,1478.7429,1570.6865,1359.4778,1570.6865,1347.4778,1558.6865,1359.4778,1546.6865" style="stroke:#181818;stroke-width:0.5;stroke-linejoin:miter;stroke-miterlimit:10;"/><text fill="#000000" font-family="sans-serif" font-size="11" lengthAdjust="spacing" textLength="119.2651" x="1359.4778" y="1563.1875">Thanh to&#225;n th&#224;nh c&#244;ng?</text><text fill="#000000" font-family="sans-serif" font-size="11" lengthAdjust="spacing" textLength="14.0615" x="1333.4163" y="1556.2695">C&#243;</text><text fill="#000000" font-family="sans-serif" font-size="11" lengthAdjust="spacing" textLength="31.8076" x="1490.7429" y="1556.2695">Kh&#244;ng</text><line style="stroke:#000000;stroke-width:1.5;" x1="1328.4163" x2="1328.4163" y1="56.0645" y2="1922.1553"/><line style="stroke:#000000;stroke-width:1.5;" x1="1527.5505" x2="1527.5505" y1="56.0645" y2="1922.1553"/><line style="stroke:#181818;stroke-width:1;" x1="212.2808" x2="212.2808" y1="103.7051" y2="123.7051"/><polygon fill="#181818" points="208.2808,113.7051,212.2808,123.7051,216.2808,113.7051,212.2808,117.7051" style="stroke:#181818;stroke-width:1;stroke-linejoin:miter;stroke-miterlimit:10;"/><line style="stroke:#181818;stroke-width:1;" x1="212.2808" x2="212.2808" y1="158.7988" y2="178.7988"/><polygon fill="#181818" points="208.2808,168.7988,212.2808,178.7988,216.2808,168.7988,212.2808,172.7988" style="stroke:#181818;stroke-width:1;stroke-linejoin:miter;stroke-miterlimit:10;"/><line style="stroke:#181818;stroke-width:1;" x1="212.2808" x2="212.2808" y1="213.8926" y2="233.8926"/><polygon fill="#181818" points="208.2808,223.8926,212.2808,233.8926,216.2808,223.8926,212.2808,227.8926" style="stroke:#181818;stroke-width:1;stroke-linejoin:miter;stroke-miterlimit:10;"/><line style="stroke:#181818;stroke-width:1;" x1="212.2808" x2="212.2808" y1="312.9863" y2="332.9863"/><polygon fill="#181818" points="208.2808,322.9863,212.2808,332.9863,216.2808,322.9863,212.2808,326.9863" style="stroke:#181818;stroke-width:1;stroke-linejoin:miter;stroke-miterlimit:10;"/><line style="stroke:#181818;stroke-width:1;" x1="259.1311" x2="289.6401" y1="400.0801" y2="400.0801"/><polygon fill="#181818" points="285.6401,360.5332,289.6401,350.5332,293.6401,360.5332,289.6401,356.5332" style="stroke:#181818;stroke-width:1;stroke-linejoin:miter;stroke-miterlimit:10;"/><line style="stroke:#181818;stroke-width:1;" x1="289.6401" x2="289.6401" y1="300.9863" y2="400.0801"/><line style="stroke:#181818;stroke-width:1;" x1="289.6401" x2="224.2808" y1="300.9863" y2="300.9863"/><polygon fill="#181818" points="234.2808,296.9863,224.2808,300.9863,234.2808,304.9863,230.2808,300.9863" style="stroke:#181818;stroke-width:1;stroke-linejoin:miter;stroke-miterlimit:10;"/><line style="stroke:#181818;stroke-width:1;" x1="212.2808" x2="212.2808" y1="368.0801" y2="388.0801"/><polygon fill="#181818" points="208.2808,378.0801,212.2808,388.0801,216.2808,378.0801,212.2808,382.0801" style="stroke:#181818;stroke-width:1;stroke-linejoin:miter;stroke-miterlimit:10;"/><line style="stroke:#181818;stroke-width:1;" x1="212.2808" x2="212.2808" y1="268.9863" y2="288.9863"/><polygon fill="#181818" points="208.2808,278.9863,212.2808,288.9863,216.2808,278.9863,212.2808,282.9863" style="stroke:#181818;stroke-width:1;stroke-linejoin:miter;stroke-miterlimit:10;"/><line style="stroke:#181818;stroke-width:1;" x1="212.2808" x2="212.2808" y1="412.0801" y2="444.999"/><polygon fill="#181818" points="208.2808,434.999,212.2808,444.999,216.2808,434.999,212.2808,438.999" style="stroke:#181818;stroke-width:1;stroke-linejoin:miter;stroke-miterlimit:10;"/><line style="stroke:#181818;stroke-width:1;" x1="212.2808" x2="212.2808" y1="480.0928" y2="500.0928"/><polygon fill="#181818" points="208.2808,490.0928,212.2808,500.0928,216.2808,490.0928,212.2808,494.0928" style="stroke:#181818;stroke-width:1;stroke-linejoin:miter;stroke-miterlimit:10;"/><line style="stroke:#181818;stroke-width:1;" x1="212.2808" x2="212.2808" y1="579.1865" y2="604.1045"/><polygon fill="#181818" points="208.2808,594.1045,212.2808,604.1045,216.2808,594.1045,212.2808,598.1045" style="stroke:#181818;stroke-width:1;stroke-linejoin:miter;stroke-miterlimit:10;"/><line style="stroke:#181818;stroke-width:1;" x1="261.8972" x2="285.3169" y1="567.1865" y2="567.1865"/><polygon fill="#181818" points="281.3169,611.6514,285.3169,621.6514,289.3169,611.6514,285.3169,615.6514" style="stroke:#181818;stroke-width:1;stroke-linejoin:miter;stroke-miterlimit:10;"/><line style="stroke:#181818;stroke-width:1;" x1="285.3169" x2="285.3169" y1="567.1865" y2="671.1982"/><line style="stroke:#181818;stroke-width:1;" x1="285.3169" x2="224.2808" y1="671.1982" y2="671.1982"/><polygon fill="#181818" points="234.2808,667.1982,224.2808,671.1982,234.2808,675.1982,230.2808,671.1982" style="stroke:#181818;stroke-width:1;stroke-linejoin:miter;stroke-miterlimit:10;"/><line style="stroke:#181818;stroke-width:1;" x1="212.2808" x2="212.2808" y1="639.1982" y2="659.1982"/><polygon fill="#181818" points="208.2808,649.1982,212.2808,659.1982,216.2808,649.1982,212.2808,653.1982" style="stroke:#181818;stroke-width:1;stroke-linejoin:miter;stroke-miterlimit:10;"/><line style="stroke:#181818;stroke-width:1;" x1="212.2808" x2="212.2808" y1="535.1865" y2="555.1865"/><polygon fill="#181818" points="208.2808,545.1865,212.2808,555.1865,216.2808,545.1865,212.2808,549.1865" style="stroke:#181818;stroke-width:1;stroke-linejoin:miter;stroke-miterlimit:10;"/><line style="stroke:#181818;stroke-width:1;" x1="212.2808" x2="212.2808" y1="683.1982" y2="705.1787"/><polygon fill="#181818" points="208.2808,695.1787,212.2808,705.1787,216.2808,695.1787,212.2808,699.1787" style="stroke:#181818;stroke-width:1;stroke-linejoin:miter;stroke-miterlimit:10;"/><line style="stroke:#181818;stroke-width:1;" x1="212.2808" x2="212.2808" y1="796.2529" y2="821.1709"/><polygon fill="#181818" points="208.2808,811.1709,212.2808,821.1709,216.2808,811.1709,212.2808,815.1709" style="stroke:#181818;stroke-width:1;stroke-linejoin:miter;stroke-miterlimit:10;"/><line style="stroke:#181818;stroke-width:1;" x1="159.9277" x2="72.9761" y1="784.2529" y2="784.2529"/><polygon fill="#181818" points="68.9761,880.7646,72.9761,890.7646,76.9761,880.7646,72.9761,884.7646" style="stroke:#181818;stroke-width:1;stroke-linejoin:miter;stroke-miterlimit:10;"/><line style="stroke:#181818;stroke-width:1;" x1="72.9761" x2="72.9761" y1="784.2529" y2="1007.3584"/><line style="stroke:#181818;stroke-width:1;" x1="72.9761" x2="200.2808" y1="1007.3584" y2="1007.3584"/><polygon fill="#181818" points="190.2808,1003.3584,200.2808,1007.3584,190.2808,1011.3584,194.2808,1007.3584" style="stroke:#181818;stroke-width:1;stroke-linejoin:miter;stroke-miterlimit:10;"/><line style="stroke:#181818;stroke-width:1;" x1="212.2808" x2="212.2808" y1="740.2725" y2="772.2529"/><polygon fill="#181818" points="208.2808,762.2529,212.2808,772.2529,216.2808,762.2529,212.2808,766.2529" style="stroke:#181818;stroke-width:1;stroke-linejoin:miter;stroke-miterlimit:10;"/><line style="stroke:#181818;stroke-width:1;" x1="91.3799" x2="91.3799" y1="1371.499" y2="1406.499"/><polygon fill="#181818" points="87.3799,1396.499,91.3799,1406.499,95.3799,1396.499,91.3799,1400.499" style="stroke:#181818;stroke-width:1;stroke-linejoin:miter;stroke-miterlimit:10;"/><line style="stroke:#181818;stroke-width:1;" x1="91.3799" x2="91.3799" y1="1441.5928" y2="1476.5928"/><polygon fill="#181818" points="87.3799,1466.5928,91.3799,1476.5928,95.3799,1466.5928,91.3799,1470.5928" style="stroke:#181818;stroke-width:1;stroke-linejoin:miter;stroke-miterlimit:10;"/><line style="stroke:#181818;stroke-width:1;" x1="354.0291" x2="354.0291" y1="1345.4053" y2="1380.4053"/><polygon fill="#181818" points="350.0291,1370.4053,354.0291,1380.4053,358.0291,1370.4053,354.0291,1374.4053" style="stroke:#181818;stroke-width:1;stroke-linejoin:miter;stroke-miterlimit:10;"/><line style="stroke:#181818;stroke-width:1;" x1="354.0291" x2="354.0291" y1="1415.499" y2="1450.499"/><polygon fill="#181818" points="350.0291,1440.499,354.0291,1450.499,358.0291,1440.499,354.0291,1444.499" style="stroke:#181818;stroke-width:1;stroke-linejoin:miter;stroke-miterlimit:10;"/><line style="stroke:#181818;stroke-width:1;" x1="212.2808" x2="212.2808" y1="1184.6396" y2="1204.6396"/><polygon fill="#181818" points="208.2808,1194.6396,212.2808,1204.6396,216.2808,1194.6396,212.2808,1198.6396" style="stroke:#181818;stroke-width:1;stroke-linejoin:miter;stroke-miterlimit:10;"/><line style="stroke:#181818;stroke-width:1;" x1="212.2808" x2="212.2808" y1="1769.9678" y2="1789.9678"/><polygon fill="#181818" points="208.2808,1779.9678,212.2808,1789.9678,216.2808,1779.9678,212.2808,1783.9678" style="stroke:#181818;stroke-width:1;stroke-linejoin:miter;stroke-miterlimit:10;"/><line style="stroke:#181818;stroke-width:1;" x1="212.2808" x2="212.2808" y1="1825.0615" y2="1845.0615"/><polygon fill="#181818" points="208.2808,1835.0615,212.2808,1845.0615,216.2808,1835.0615,212.2808,1839.0615" style="stroke:#181818;stroke-width:1;stroke-linejoin:miter;stroke-miterlimit:10;"/><line style="stroke:#181818;stroke-width:1;" x1="212.2808" x2="212.2808" y1="1880.1553" y2="1900.1553"/><polygon fill="#181818" points="208.2808,1890.1553,212.2808,1900.1553,216.2808,1890.1553,212.2808,1894.1553" style="stroke:#181818;stroke-width:1;stroke-linejoin:miter;stroke-miterlimit:10;"/><line style="stroke:#181818;stroke-width:1;" x1="833.9453" x2="823.9453" y1="888.2646" y2="888.2646"/><line style="stroke:#181818;stroke-width:1;" x1="823.9453" x2="823.9453" y1="888.2646" y2="910.2646"/><polygon fill="#181818" points="819.9453,900.2646,823.9453,910.2646,827.9453,900.2646,823.9453,904.2646" style="stroke:#181818;stroke-width:1;stroke-linejoin:miter;stroke-miterlimit:10;"/><line style="stroke:#181818;stroke-width:1;" x1="939.1563" x2="949.1563" y1="888.2646" y2="888.2646"/><line style="stroke:#181818;stroke-width:1;" x1="949.1563" x2="949.1563" y1="888.2646" y2="910.2646"/><polygon fill="#181818" points="945.1563,900.2646,949.1563,910.2646,953.1563,900.2646,949.1563,904.2646" style="stroke:#181818;stroke-width:1;stroke-linejoin:miter;stroke-miterlimit:10;"/><line style="stroke:#181818;stroke-width:1;" x1="823.9453" x2="823.9453" y1="945.3584" y2="963.3584"/><line style="stroke:#181818;stroke-width:1;" x1="823.9453" x2="874.5508" y1="963.3584" y2="963.3584"/><polygon fill="#181818" points="864.5508,959.3584,874.5508,963.3584,864.5508,967.3584,868.5508,963.3584" style="stroke:#181818;stroke-width:1;stroke-linejoin:miter;stroke-miterlimit:10;"/><line style="stroke:#181818;stroke-width:1;" x1="949.1563" x2="949.1563" y1="945.3584" y2="963.3584"/><line style="stroke:#181818;stroke-width:1;" x1="949.1563" x2="898.5508" y1="963.3584" y2="963.3584"/><polygon fill="#181818" points="908.5508,959.3584,898.5508,963.3584,908.5508,967.3584,904.5508,963.3584" style="stroke:#181818;stroke-width:1;stroke-linejoin:miter;stroke-miterlimit:10;"/><line style="stroke:#181818;stroke-width:1;" x1="886.5508" x2="886.5508" y1="1074.4521" y2="1094.4521"/><polygon fill="#181818" points="882.5508,1084.4521,886.5508,1094.4521,890.5508,1084.4521,886.5508,1088.4521" style="stroke:#181818;stroke-width:1;stroke-linejoin:miter;stroke-miterlimit:10;"/><line style="stroke:#181818;stroke-width:1;" x1="520.7253" x2="520.7253" y1="1316.499" y2="1351.499"/><polygon fill="#181818" points="516.7253,1341.499,520.7253,1351.499,524.7253,1341.499,520.7253,1345.499" style="stroke:#181818;stroke-width:1;stroke-linejoin:miter;stroke-miterlimit:10;"/><line style="stroke:#181818;stroke-width:1;" x1="520.7253" x2="520.7253" y1="1386.5928" y2="1421.5928"/><polygon fill="#181818" points="516.7253,1411.5928,520.7253,1421.5928,524.7253,1411.5928,520.7253,1415.5928" style="stroke:#181818;stroke-width:1;stroke-linejoin:miter;stroke-miterlimit:10;"/><line style="stroke:#181818;stroke-width:1;" x1="684.0173" x2="684.0173" y1="1625.7803" y2="1645.7803"/><polygon fill="#181818" points="680.0173,1635.7803,684.0173,1645.7803,688.0173,1635.7803,684.0173,1639.7803" style="stroke:#181818;stroke-width:1;stroke-linejoin:miter;stroke-miterlimit:10;"/><line style="stroke:#181818;stroke-width:1;" x1="684.0173" x2="684.0173" y1="1680.874" y2="1700.874"/><polygon fill="#181818" points="680.0173,1690.874,684.0173,1700.874,688.0173,1690.874,684.0173,1694.874" style="stroke:#181818;stroke-width:1;stroke-linejoin:miter;stroke-miterlimit:10;"/><line style="stroke:#181818;stroke-width:1;" x1="847.2825" x2="847.2825" y1="1625.7803" y2="1645.7803"/><polygon fill="#181818" points="843.2825,1635.7803,847.2825,1645.7803,851.2825,1635.7803,847.2825,1639.7803" style="stroke:#181818;stroke-width:1;stroke-linejoin:miter;stroke-miterlimit:10;"/><line style="stroke:#181818;stroke-width:1;" x1="847.2825" x2="847.2825" y1="1680.874" y2="1700.874"/><polygon fill="#181818" points="843.2825,1690.874,847.2825,1700.874,851.2825,1690.874,847.2825,1694.874" style="stroke:#181818;stroke-width:1;stroke-linejoin:miter;stroke-miterlimit:10;"/><line style="stroke:#181818;stroke-width:1;" x1="1028.2991" x2="1028.2991" y1="1555.6865" y2="1590.6865"/><polygon fill="#181818" points="1024.2991,1580.6865,1028.2991,1590.6865,1032.2991,1580.6865,1028.2991,1584.6865" style="stroke:#181818;stroke-width:1;stroke-linejoin:miter;stroke-miterlimit:10;"/><line style="stroke:#181818;stroke-width:1;" x1="1233.6858" x2="1233.6858" y1="1345.4053" y2="1380.4053"/><polygon fill="#181818" points="1229.6858,1370.4053,1233.6858,1380.4053,1237.6858,1370.4053,1233.6858,1374.4053" style="stroke:#181818;stroke-width:1;stroke-linejoin:miter;stroke-miterlimit:10;"/><line style="stroke:#181818;stroke-width:1;" x1="1186.3506" x2="1233.6858" y1="1278.3115" y2="1278.3115"/><line style="stroke:#181818;stroke-width:1;" x1="1233.6858" x2="1233.6858" y1="1278.3115" y2="1310.3115"/><polygon fill="#181818" points="1229.6858,1300.3115,1233.6858,1310.3115,1237.6858,1300.3115,1233.6858,1304.3115" style="stroke:#181818;stroke-width:1;stroke-linejoin:miter;stroke-miterlimit:10;"/><line style="stroke:#181818;stroke-width:1;" x1="1028.2991" x2="1028.2991" y1="1625.7803" y2="1630.7803"/><line style="stroke:#181818;stroke-width:1;" x1="1028.2991" x2="1130.9924" y1="1630.7803" y2="1630.7803"/><line style="stroke:#181818;stroke-width:1;" x1="212.2808" x2="212.2808" y1="856.2646" y2="861.2646"/><line style="stroke:#181818;stroke-width:1;" x1="212.2808" x2="886.5508" y1="861.2646" y2="861.2646"/><line style="stroke:#181818;stroke-width:1;" x1="886.5508" x2="886.5508" y1="861.2646" y2="876.2646"/><polygon fill="#181818" points="882.5508,866.2646,886.5508,876.2646,890.5508,866.2646,886.5508,870.2646" style="stroke:#181818;stroke-width:1;stroke-linejoin:miter;stroke-miterlimit:10;"/><line style="stroke:#181818;stroke-width:1;" x1="886.5508" x2="886.5508" y1="975.3584" y2="982.8994"/><line style="stroke:#181818;stroke-width:1;" x1="886.5508" x2="212.2808" y1="982.8994" y2="982.8994"/><line style="stroke:#181818;stroke-width:1;" x1="212.2808" x2="212.2808" y1="982.8994" y2="995.3584"/><polygon fill="#181818" points="208.2808,985.3584,212.2808,995.3584,216.2808,985.3584,212.2808,989.3584" style="stroke:#181818;stroke-width:1;stroke-linejoin:miter;stroke-miterlimit:10;"/><line style="stroke:#181818;stroke-width:1;" x1="212.2808" x2="212.2808" y1="1019.3584" y2="1024.3584"/><line style="stroke:#181818;stroke-width:1;" x1="212.2808" x2="886.5508" y1="1024.3584" y2="1024.3584"/><line style="stroke:#181818;stroke-width:1;" x1="886.5508" x2="886.5508" y1="1024.3584" y2="1039.3584"/><polygon fill="#181818" points="882.5508,1029.3584,886.5508,1039.3584,890.5508,1029.3584,886.5508,1033.3584" style="stroke:#181818;stroke-width:1;stroke-linejoin:miter;stroke-miterlimit:10;"/><line style="stroke:#181818;stroke-width:1;" x1="886.5508" x2="886.5508" y1="1129.5459" y2="1134.5459"/><line style="stroke:#181818;stroke-width:1;" x1="886.5508" x2="212.2808" y1="1134.5459" y2="1134.5459"/><line style="stroke:#181818;stroke-width:1;" x1="212.2808" x2="212.2808" y1="1134.5459" y2="1149.5459"/><polygon fill="#181818" points="208.2808,1139.5459,212.2808,1149.5459,216.2808,1139.5459,212.2808,1143.5459" style="stroke:#181818;stroke-width:1;stroke-linejoin:miter;stroke-miterlimit:10;"/><line style="stroke:#181818;stroke-width:1;" x1="765.6499" x2="765.6499" y1="1301.4053" y2="1318.9053"/><line style="stroke:#181818;stroke-width:1;" x1="765.6499" x2="91.3799" y1="1318.9053" y2="1318.9053"/><line style="stroke:#181818;stroke-width:1;" x1="91.3799" x2="91.3799" y1="1318.9053" y2="1336.4053"/><polygon fill="#181818" points="87.3799,1326.4053,91.3799,1336.4053,95.3799,1326.4053,91.3799,1330.4053" style="stroke:#181818;stroke-width:1;stroke-linejoin:miter;stroke-miterlimit:10;"/><line style="stroke:#181818;stroke-width:1;" x1="1347.4778" x2="684.0173" y1="1558.6865" y2="1558.6865"/><line style="stroke:#181818;stroke-width:1;" x1="684.0173" x2="684.0173" y1="1558.6865" y2="1590.6865"/><polygon fill="#181818" points="680.0173,1580.6865,684.0173,1590.6865,688.0173,1580.6865,684.0173,1584.6865" style="stroke:#181818;stroke-width:1;stroke-linejoin:miter;stroke-miterlimit:10;"/><line style="stroke:#181818;stroke-width:1;" x1="1490.7429" x2="1502.7429" y1="1558.6865" y2="1558.6865"/><line style="stroke:#181818;stroke-width:1;" x1="1502.7429" x2="1502.7429" y1="1558.6865" y2="1576.6865"/><line style="stroke:#181818;stroke-width:1;" x1="1502.7429" x2="847.2825" y1="1576.6865" y2="1576.6865"/><line style="stroke:#181818;stroke-width:1;" x1="847.2825" x2="847.2825" y1="1576.6865" y2="1590.6865"/><polygon fill="#181818" points="843.2825,1580.6865,847.2825,1590.6865,851.2825,1580.6865,847.2825,1584.6865" style="stroke:#181818;stroke-width:1;stroke-linejoin:miter;stroke-miterlimit:10;"/><line style="stroke:#181818;stroke-width:1;" x1="684.0173" x2="684.0173" y1="1735.9678" y2="1739.9678"/><line style="stroke:#181818;stroke-width:1;" x1="684.0173" x2="1419.1104" y1="1739.9678" y2="1739.9678"/><line style="stroke:#181818;stroke-width:1;" x1="1419.1104" x2="1419.1104" y1="1739.9678" y2="1740.9678"/><line style="stroke:#181818;stroke-width:1;" x1="91.3799" x2="91.3799" y1="1511.6865" y2="1529.1865"/><line style="stroke:#181818;stroke-width:1;" x1="91.3799" x2="1419.1104" y1="1529.1865" y2="1529.1865"/><line style="stroke:#181818;stroke-width:1;" x1="1419.1104" x2="1419.1104" y1="1529.1865" y2="1546.6865"/><polygon fill="#181818" points="1415.1104,1536.6865,1419.1104,1546.6865,1423.1104,1536.6865,1419.1104,1540.6865" style="stroke:#181818;stroke-width:1;stroke-linejoin:miter;stroke-miterlimit:10;"/><line style="stroke:#181818;stroke-width:1;" x1="354.0291" x2="354.0291" y1="1485.5928" y2="1503.0928"/><line style="stroke:#181818;stroke-width:1;" x1="354.0291" x2="1028.2991" y1="1503.0928" y2="1503.0928"/><line style="stroke:#181818;stroke-width:1;" x1="1028.2991" x2="1028.2991" y1="1503.0928" y2="1520.5928"/><polygon fill="#181818" points="1024.2991,1510.5928,1028.2991,1520.5928,1032.2991,1510.5928,1028.2991,1514.5928" style="stroke:#181818;stroke-width:1;stroke-linejoin:miter;stroke-miterlimit:10;"/><line style="stroke:#181818;stroke-width:1;" x1="1075.6343" x2="354.0291" y1="1278.3115" y2="1278.3115"/><line style="stroke:#181818;stroke-width:1;" x1="354.0291" x2="354.0291" y1="1278.3115" y2="1310.3115"/><polygon fill="#181818" points="350.0291,1300.3115,354.0291,1310.3115,358.0291,1300.3115,354.0291,1304.3115" style="stroke:#181818;stroke-width:1;stroke-linejoin:miter;stroke-miterlimit:10;"/><line style="stroke:#181818;stroke-width:1;" x1="260.02" x2="520.7253" y1="1216.6396" y2="1216.6396"/><line style="stroke:#181818;stroke-width:1;" x1="520.7253" x2="520.7253" y1="1216.6396" y2="1266.3115"/><polygon fill="#181818" points="516.7253,1256.3115,520.7253,1266.3115,524.7253,1256.3115,520.7253,1260.3115" style="stroke:#181818;stroke-width:1;stroke-linejoin:miter;stroke-miterlimit:10;"/><text fill="#000000" font-family="sans-serif" font-size="11" lengthAdjust="spacing" textLength="24.4438" x="520.7253" y="1245.9766">COD</text><line style="stroke:#181818;stroke-width:1;" x1="260.02" x2="765.6499" y1="1216.6396" y2="1216.6396"/><line style="stroke:#181818;stroke-width:1;" x1="765.6499" x2="765.6499" y1="1216.6396" y2="1266.3115"/><polygon fill="#181818" points="761.6499,1256.3115,765.6499,1266.3115,769.6499,1256.3115,765.6499,1260.3115" style="stroke:#181818;stroke-width:1;stroke-linejoin:miter;stroke-miterlimit:10;"/><text fill="#000000" font-family="sans-serif" font-size="11" lengthAdjust="spacing" textLength="34.2354" x="765.6499" y="1245.9766">VNPay</text><line style="stroke:#181818;stroke-width:1;" x1="260.02" x2="1130.9924" y1="1216.6396" y2="1216.6396"/><line style="stroke:#181818;stroke-width:1;" x1="1130.9924" x2="1130.9924" y1="1216.6396" y2="1266.3115"/><polygon fill="#181818" points="1126.9924,1256.3115,1130.9924,1266.3115,1134.9924,1256.3115,1130.9924,1260.3115" style="stroke:#181818;stroke-width:1;stroke-linejoin:miter;stroke-miterlimit:10;"/><text fill="#000000" font-family="sans-serif" font-size="11" lengthAdjust="spacing" textLength="56.8638" x="1130.9924" y="1245.9766">Tr&#7843; g&#243;p 0%</text><text fill="#000000" font-family="sans-serif" font-size="18" lengthAdjust="spacing" textLength="96.082" x="188.3016" y="74.75">Kh&#225;ch h&#224;ng</text><text fill="#000000" font-family="sans-serif" font-size="18" lengthAdjust="spacing" textLength="73.0547" x="854.0234" y="74.75">H&#7879; th&#7889;ng</text><text fill="#000000" font-family="sans-serif" font-size="18" lengthAdjust="spacing" textLength="56.0215" x="1399.9727" y="74.75">VNPay</text><?plantuml-src bLLTYnD957tlNt4PMKWUP7GKMH9KCC88BgEoOL3mfQPJfejqLpUToiH0NePv61QHJP1byM5WOf1Xn06NsMMXcsKVgfd_qVzaxwtAHsTjepubLNNlkUUU-z5AA9_3azu0LAm_IW-oSPxyhS3J9x8DRfwUCkXuUk9wzifnkXqX8nQp09YhnBvGW_k21Q5itMDkfns7FTbgX7uOmvMVHDjJsp4RbFYK6p_ZlX_s7MTeZ_Vy7Xy-B4GVEbt5OkNKcZ4oTlFaF88-t-iAnUjugJy6q15vycy0-_e4Nl80kdaobH1vUN8Ma8cdFwnUacK8RP6dlzeOTSU9USIPSW1gJn52VUPJdrb0tnEeNgL9CIDGUVhUXQ37xbP1TA7Iq1TLaA622kRmfsnN7QUsIz5Kp53SbPYrXtWw3EZ9SBUvIGnthZ1sEWR_ybEUJWq_yG8gsKXFiLZP8I8PimYZAe_BPJJaduqA1fkpKqV_KtUuR8aNI2WROU03ILcY4oWXaHWBvxoGFeUOYe5mL-51dhu6fJz8a6tYSomijZIlFnFFR8o0HmGOvib4c8TibAUl6BXUdlvIW2SI912tAQ5U461M-s7FzNYyo8Tqf6HsJ1P5apfU3-TznhaS8hyZz48Ur2m01BjhRG5lfn7uQF5_PCJM1n6qi7wsBiaqm1yz8NpkTtbHKpHkMgtsz2GalD-5iJE2pcHTGwhMpDC_QCpIjuYX9uku7Qytm3wIbA0mxNoEyuXDzPkf2rMflcuqQWqCyPfwzFBJvOHyy7pcuWyZd51FoB_R5mfzAezNhUvM7PTHeer7zwjVKnLJI33rR8m0DlfpkK7HZ-4bCfgrn0QfKjksQc8QRoIc6DhBF3qNm0Cc_A87lSrexEuyPeEl4scGPkcXD6iBfJDkiCqKxxE1WLiWb2Xc08ncigtVoNdFBrkjC1GODKdDszCbuLLjPz4UqNJpeQ4oxy7cqev0J_3W4lJddRWstpBfOSEiWW8J8_mNf5ylVacl8uNJWPrPxDDNhbTVCmC0NHL6Ys5OLBCP8nDewui8hlrG_PQXpKRB1E_SXXig_g9KfOLTbfOcRInmQM6cIfy8t48qMFKLeqwUNk22I31cvTRczQtDwpzkRjsaKk68L6Us9QkILdKlyaFMCclZ_O3KFhRstrtEsGYrgAMF57uAvg9jb6Zk6bjVq2xs27VhflSDwwfZ_vCeftPL7_JecuaRkxo0-CUkZBMhPyUEGqbJONIEhQF_4iMcfKL4WVu3?></g></svg>